<?xml version="1.0" encoding="utf-8"?>
<!-- Generator: Adobe Illustrator 15.1.0, SVG Export Plug-In  -->
<!DOCTYPE svg PUBLIC "-//W3C//DTD SVG 1.1//EN" "http://www.w3.org/Graphics/SVG/1.1/DTD/svg11.dtd" [
	<!ENTITY ns_flows "http://ns.adobe.com/Flows/1.0/">
]>
<svg version="1.1"
	 xmlns="http://www.w3.org/2000/svg" xmlns:xlink="http://www.w3.org/1999/xlink" xmlns:a="http://ns.adobe.com/AdobeSVGViewerExtensions/3.0/"
	 x="0px" y="0px" width="300px" height="300px" viewBox="-13.063 -68.649 300 300" enable-background="new -13.063 -68.649 300 300"
	 xml:space="preserve">
<defs>
</defs>
<g>
	<g>
		<path fill="#C60A40" d="M260.127,56.872c-0.033-0.024-0.076-0.039-0.118-0.034l-1.718,0.166l-0.369,0.035
			c-0.171-0.777-0.438-1.514-0.787-2.198l1.731-1.236c0.06-0.042,0.083-0.112,0.069-0.178c-0.005-0.021-0.014-0.042-0.028-0.062
			l-1.268-1.777c-0.033-0.045-0.083-0.067-0.132-0.07c-0.038-0.001-0.076,0.006-0.109,0.03l-1.476,1.054l-0.228,0.162
			c-0.528-0.576-1.127-1.082-1.781-1.508l0.881-1.94c0.028-0.062,0.017-0.13-0.024-0.179c-0.017-0.021-0.036-0.037-0.059-0.049
			l-1.987-0.904c-0.052-0.022-0.107-0.018-0.154,0.008c-0.031,0.018-0.059,0.041-0.073,0.076l-0.803,1.765l-0.064,0.14
			c-0.734-0.232-1.504-0.373-2.298-0.416l-0.206-2.119c-0.007-0.07-0.057-0.125-0.118-0.147c-0.021-0.006-0.045-0.008-0.069-0.006
			l-2.172,0.21h-0.002c-0.069,0.007-0.126,0.057-0.147,0.121c-0.005,0.02-0.01,0.042-0.007,0.066l0.14,1.431l0.064,0.656
			c-0.777,0.17-1.514,0.437-2.198,0.787l-1.239-1.734c-0.055-0.076-0.161-0.095-0.237-0.039l-1.301,0.928l-0.478,0.341
			c-0.076,0.056-0.095,0.164-0.041,0.239l1.218,1.705c-0.576,0.528-1.083,1.128-1.509,1.782l-1.938-0.883
			c-0.088-0.039-0.187,0-0.228,0.085l-0.521,1.147l-0.384,0.84c-0.038,0.087,0,0.188,0.085,0.228l1.904,0.866
			c-0.232,0.735-0.374,1.505-0.417,2.299l-2.118,0.206c-0.071,0.007-0.128,0.055-0.147,0.119c-0.002,0.007-0.002,0.017-0.002,0.023
			c-0.002,0.014-0.007,0.028-0.004,0.045l0.211,2.172c0.009,0.095,0.092,0.164,0.187,0.154l2.084-0.201
			c0.173,0.777,0.438,1.513,0.787,2.198l-1.732,1.238c-0.078,0.056-0.095,0.161-0.04,0.238l0.341,0.476l0.929,1.3
			c0.038,0.055,0.102,0.078,0.164,0.069c0.005,0,0.009,0.001,0.012,0c0.024-0.005,0.043-0.014,0.064-0.027l1.703-1.218
			c0.528,0.577,1.128,1.082,1.784,1.508l-0.883,1.94c-0.028,0.064-0.014,0.137,0.031,0.187c0,0.001,0,0,0,0
			c0.017,0.017,0.033,0.031,0.055,0.04l0.573,0.261l1.414,0.645c0.085,0.038,0.187,0,0.228-0.085l0.864-1.905
			c0.734,0.232,1.507,0.375,2.3,0.416l0.206,2.119c0,0.013,0.005,0.024,0.009,0.036c0.002,0.01,0.005,0.021,0.01,0.028
			c0.002,0.005,0.005,0.005,0.007,0.01c0.033,0.052,0.093,0.086,0.159,0.081l2.174-0.211c0.055-0.005,0.097-0.038,0.125-0.082
			c0.019-0.031,0.033-0.068,0.028-0.105l-0.185-1.907l-0.019-0.18c0.779-0.171,1.514-0.437,2.201-0.786l1.237,1.733
			c0.038,0.055,0.102,0.076,0.166,0.066c0.026-0.003,0.05-0.011,0.074-0.027l1.776-1.269c0.042-0.031,0.064-0.076,0.069-0.124
			c0.005-0.039-0.005-0.08-0.028-0.115l-1.023-1.431l-0.194-0.273c0.576-0.53,1.083-1.127,1.509-1.783l1.94,0.884
			c0.062,0.028,0.13,0.014,0.18-0.027c0.019-0.016,0.036-0.034,0.045-0.058l0.905-1.987c0.021-0.049,0.019-0.101-0.002-0.145
			c-0.017-0.036-0.045-0.064-0.083-0.083l-1.632-0.743l-0.27-0.122c0.23-0.737,0.372-1.506,0.415-2.3l2.118-0.207
			c0.071-0.007,0.128-0.054,0.146-0.118c0.007-0.021,0.01-0.045,0.007-0.069l-0.211-2.172
			C260.189,56.942,260.163,56.901,260.127,56.872z M249.117,61.993c-1.62,0.156-3.061-1.029-3.217-2.651
			c-0.156-1.62,1.028-3.061,2.648-3.217c1.62-0.156,3.061,1.03,3.219,2.649C251.924,60.396,250.737,61.836,249.117,61.993z"/>
		<path fill="#3F9DFE" d="M271.23,76.638c-0.024-0.018-0.052-0.027-0.085-0.024l-1.227,0.118l-0.265,0.026
			c-0.124-0.556-0.313-1.083-0.562-1.573l1.239-0.885c0.041-0.029,0.06-0.081,0.047-0.126c-0.002-0.016-0.009-0.031-0.019-0.044
			l-0.907-1.272c-0.023-0.032-0.059-0.049-0.095-0.05c-0.026-0.001-0.054,0.004-0.078,0.02l-1.057,0.756l-0.161,0.116
			c-0.379-0.412-0.808-0.774-1.277-1.079l0.632-1.388c0.021-0.044,0.012-0.094-0.017-0.129c-0.012-0.013-0.026-0.025-0.045-0.033
			l-1.421-0.646c-0.036-0.017-0.076-0.013-0.109,0.005c-0.021,0.014-0.042,0.031-0.055,0.056l-0.573,1.261l-0.045,0.101
			c-0.526-0.166-1.078-0.267-1.644-0.297l-0.149-1.516c-0.005-0.05-0.038-0.09-0.083-0.104c-0.017-0.005-0.033-0.007-0.05-0.006
			l-1.554,0.15h-0.002c-0.05,0.005-0.09,0.04-0.104,0.085c-0.005,0.016-0.007,0.032-0.005,0.05l0.1,1.023l0.045,0.469
			c-0.557,0.122-1.083,0.313-1.573,0.563l-0.886-1.24c-0.038-0.054-0.116-0.068-0.171-0.028l-0.931,0.663l-0.341,0.244
			c-0.055,0.041-0.066,0.116-0.028,0.172l0.872,1.219c-0.412,0.378-0.774,0.808-1.08,1.275l-1.388-0.631
			c-0.062-0.028-0.133-0.001-0.161,0.061l-0.374,0.821l-0.272,0.602c-0.029,0.062-0.002,0.134,0.059,0.163l1.362,0.619
			c-0.166,0.526-0.268,1.078-0.296,1.645l-1.516,0.147c-0.05,0.005-0.09,0.04-0.106,0.085c0,0.006,0,0.011,0,0.018
			c-0.002,0.01-0.005,0.021-0.002,0.031l0.149,1.555c0.007,0.067,0.066,0.117,0.132,0.11l1.495-0.145
			c0.121,0.556,0.313,1.083,0.561,1.573l-1.239,0.886c-0.057,0.039-0.069,0.115-0.028,0.171l0.242,0.341l0.666,0.93
			c0.028,0.039,0.073,0.056,0.116,0.05c0.004-0.001,0.007,0,0.009-0.001c0.017-0.003,0.031-0.01,0.045-0.02l1.22-0.87
			c0.379,0.412,0.808,0.773,1.274,1.078l-0.63,1.389c-0.021,0.045-0.012,0.098,0.021,0.133v0.001
			c0.012,0.011,0.023,0.021,0.038,0.027l0.412,0.188l1.011,0.461c0.062,0.027,0.133,0,0.161-0.062l0.621-1.362
			c0.526,0.166,1.078,0.268,1.644,0.297l0.147,1.517c0.002,0.009,0.005,0.018,0.009,0.025c0.002,0.008,0.002,0.015,0.005,0.021
			c0.002,0.004,0.005,0.004,0.005,0.007c0.026,0.037,0.068,0.062,0.116,0.057l1.554-0.15c0.04-0.003,0.071-0.026,0.09-0.058
			c0.014-0.022,0.024-0.049,0.021-0.076l-0.133-1.364l-0.012-0.128c0.557-0.123,1.083-0.313,1.573-0.563l0.886,1.239
			c0.026,0.039,0.073,0.056,0.118,0.048c0.017-0.002,0.036-0.008,0.052-0.02l1.27-0.907c0.031-0.021,0.047-0.055,0.052-0.089
			c0-0.028-0.005-0.059-0.021-0.083l-0.732-1.023l-0.14-0.195c0.412-0.379,0.775-0.808,1.08-1.275l1.388,0.631
			c0.043,0.021,0.092,0.011,0.128-0.019c0.014-0.011,0.024-0.024,0.033-0.042l0.647-1.422c0.017-0.035,0.012-0.071-0.002-0.104
			c-0.012-0.024-0.031-0.046-0.057-0.06l-1.17-0.53l-0.194-0.089c0.166-0.525,0.268-1.076,0.298-1.646l1.516-0.146
			c0.05-0.005,0.09-0.039,0.104-0.085c0.004-0.016,0.007-0.031,0.004-0.049l-0.149-1.554
			C271.275,76.688,271.256,76.658,271.23,76.638z M263.354,80.302c-1.161,0.112-2.191-0.737-2.303-1.896
			c-0.114-1.158,0.737-2.189,1.895-2.302c1.161-0.112,2.191,0.737,2.303,1.896C265.36,79.159,264.512,80.19,263.354,80.302z"/>
		<path fill="#9FB603" d="M273.367,60.903c-0.017-0.014-0.038-0.021-0.062-0.019l-0.889,0.086l-0.192,0.018
			c-0.087-0.402-0.227-0.784-0.407-1.138l0.898-0.641c0.031-0.021,0.042-0.058,0.035-0.092c-0.002-0.011-0.007-0.021-0.014-0.031
			l-0.658-0.921c-0.017-0.024-0.043-0.034-0.069-0.036c-0.019-0.001-0.038,0.002-0.055,0.014l-0.765,0.547l-0.118,0.084
			c-0.272-0.298-0.583-0.56-0.924-0.78l0.459-1.006c0.014-0.032,0.007-0.067-0.014-0.093c-0.01-0.01-0.019-0.019-0.031-0.024
			l-1.031-0.469c-0.026-0.012-0.054-0.009-0.078,0.005c-0.017,0.01-0.031,0.021-0.038,0.041l-0.417,0.912l-0.033,0.074
			c-0.379-0.121-0.779-0.194-1.189-0.216l-0.106-1.097c-0.005-0.037-0.031-0.066-0.062-0.076c-0.012-0.005-0.024-0.005-0.036-0.005
			l-1.127,0.109l0,0c-0.036,0.005-0.064,0.03-0.076,0.062c-0.002,0.012-0.005,0.024-0.002,0.036l0.071,0.742l0.033,0.338
			c-0.402,0.09-0.784,0.228-1.139,0.408l-0.64-0.898c-0.028-0.039-0.085-0.048-0.125-0.019l-0.673,0.48l-0.247,0.176
			c-0.04,0.028-0.049,0.084-0.021,0.124l0.63,0.883c-0.298,0.275-0.562,0.585-0.782,0.924l-1.004-0.457
			c-0.045-0.021-0.097-0.001-0.118,0.044l-0.27,0.593l-0.197,0.436c-0.021,0.045-0.002,0.097,0.042,0.117l0.988,0.449
			c-0.121,0.381-0.194,0.779-0.215,1.191l-1.099,0.107c-0.036,0.002-0.064,0.028-0.076,0.062c0,0.003,0,0.007,0,0.012
			c-0.002,0.007-0.002,0.014-0.002,0.023l0.109,1.125c0.005,0.048,0.047,0.085,0.097,0.081l1.08-0.106
			c0.088,0.402,0.228,0.784,0.407,1.139l-0.897,0.642c-0.041,0.028-0.05,0.083-0.021,0.123l0.178,0.247l0.481,0.674
			c0.019,0.028,0.052,0.04,0.085,0.037c0-0.001,0.002,0,0.005-0.001c0.012-0.002,0.024-0.008,0.033-0.015l0.884-0.631
			c0.272,0.298,0.583,0.561,0.924,0.782l-0.459,1.004c-0.015,0.034-0.007,0.072,0.016,0.097v0.001
			c0.01,0.008,0.019,0.015,0.029,0.02l0.296,0.135l0.734,0.334c0.042,0.019,0.097,0,0.116-0.045l0.45-0.985
			c0.379,0.12,0.779,0.193,1.189,0.216l0.106,1.097c0.002,0.007,0.005,0.013,0.007,0.019c0.002,0.004,0.002,0.009,0.005,0.014
			c0,0.002,0.002,0.002,0.002,0.005c0.019,0.027,0.05,0.045,0.083,0.041l1.127-0.109c0.029-0.002,0.05-0.019,0.064-0.042
			c0.01-0.017,0.017-0.035,0.015-0.054l-0.095-0.989l-0.009-0.092c0.403-0.089,0.784-0.226,1.14-0.407l0.639,0.896
			c0.021,0.028,0.055,0.04,0.088,0.036c0.012-0.002,0.026-0.005,0.038-0.014l0.919-0.656c0.023-0.017,0.033-0.041,0.038-0.065
			c0-0.02-0.005-0.041-0.017-0.06l-0.528-0.742l-0.102-0.14c0.298-0.275,0.562-0.585,0.782-0.924l1.004,0.457
			c0.031,0.014,0.069,0.007,0.095-0.014c0.01-0.008,0.017-0.018,0.024-0.031l0.466-1.028c0.012-0.026,0.01-0.052-0.002-0.076
			c-0.007-0.018-0.021-0.033-0.041-0.042l-0.846-0.385l-0.142-0.063c0.121-0.381,0.194-0.78,0.215-1.191l1.1-0.106
			c0.035-0.004,0.064-0.029,0.076-0.062c0.002-0.012,0.004-0.023,0.002-0.035l-0.109-1.125
			C273.4,60.938,273.386,60.917,273.367,60.903z M267.665,63.555c-0.841,0.082-1.587-0.534-1.667-1.373
			c-0.081-0.84,0.533-1.586,1.372-1.668c0.841-0.081,1.587,0.534,1.667,1.374C269.117,62.727,268.504,63.473,267.665,63.555z"/>
	</g>
</g>
<path fill="#475059" d="M95.896,67.531l-20.507,42.18l67.51,20.144V53.905l-35.755,5.364
	C102.261,60.001,98.054,63.092,95.896,67.531z"/>
<path fill="#475059" d="M178.653,59.27l-35.755-5.364v75.949l67.509-20.144l-20.507-42.18
	C187.743,63.092,183.533,60.001,178.653,59.27z"/>
<path fill="#555E66" d="M123.751,116.971l-35.168-12.327c-5.676-1.99-11.946,1.025-13.936,6.701l0,0
	c-1.99,5.675,1.026,11.946,6.702,13.937l35.168,12.327c5.675,1.99,11.946-1.025,13.936-6.701
	C132.442,125.232,129.427,118.961,123.751,116.971z"/>
<path fill="#555E66" d="M197.104,104.644l-35.168,12.327c-5.676,1.99-8.691,8.262-6.701,13.937l0,0
	c1.99,5.676,8.26,8.691,13.936,6.701l35.168-12.327c5.676-1.99,8.691-8.262,6.702-13.937
	C209.051,105.669,202.78,102.653,197.104,104.644z"/>
<polygon fill="#FF9633" points="112.705,58.468 144.121,105.137 170.761,57.826 142.898,53.905 "/>
<ellipse transform="matrix(-0.2605 -0.9655 0.9655 -0.2605 121.0381 164.4982)" fill="#F18850" cx="123.519" cy="35.894" rx="5.593" ry="2.466"/>
<ellipse transform="matrix(0.2605 -0.9655 0.9655 0.2605 85.5089 183.4236)" fill="#F18850" cx="162.489" cy="35.894" rx="5.593" ry="2.466"/>
<path fill="#F18850" d="M128.538,56.654c0,1.123,0.438,2.202,1.225,3.005l13.136,13.438l13.133-13.438
	c0.786-0.803,1.225-1.882,1.225-3.005v-9.417h-28.718V56.654z"/>
<path fill="#FFB07C" d="M143.311,1.391c-11.484-0.018-20.808,12.031-20.832,26.91c-0.021,14.881,11.624,29.719,20.747,29.731
	c9.546,0.016,20.813-14.789,20.834-29.668S154.792,1.407,143.311,1.391z"/>
<path fill="#2B2B2B" d="M138.674,33.865H128.64c-2.397,0-3.932,2.58-2.802,4.714l1.627,3.084c0.552,1.045,1.629,1.696,2.802,1.696
	h7.592c1.44,0,2.698-0.976,3.07-2.38l0.815-3.083C142.282,35.862,140.762,33.865,138.674,33.865z"/>
<path fill="#2B2B2B" d="M157.936,33.778h-10.082c-2.097,0-3.622,2.015-3.082,4.068l0.817,3.11c0.372,1.417,1.637,2.402,3.084,2.402
	h7.625c1.18,0,2.262-0.659,2.816-1.713l1.637-3.11C161.884,36.38,160.345,33.778,157.936,33.778z"/>
<path fill="#747C82" d="M137.813,34.597h-8.573c-2.049,0-3.356,2.158-2.395,3.945l1.393,2.579c0.472,0.874,1.393,1.42,2.395,1.42
	h6.483c1.229,0,2.307-0.817,2.623-1.991l0.696-2.58C140.894,36.268,139.596,34.597,137.813,34.597z"/>
<path fill="#747C82" d="M157.296,34.597h-8.573c-1.784,0-3.082,1.671-2.622,3.374l0.696,2.58c0.317,1.174,1.393,1.991,2.622,1.991
	h6.486c1.002,0,1.921-0.546,2.393-1.42l1.393-2.579C160.655,36.755,159.345,34.597,157.296,34.597z"/>
<path fill="#2B2B2B" d="M141.782,37.737c0,0,0.628-1.261,1.476-1.261s1.514,1.371,1.514,1.371l0.343-2.21h-3.716L141.782,37.737z"/>
<path fill="#8D3B26" d="M143.317,54.918c-9.783,0-19.78-18.604-19.78-18.604s4.866,25.339,19.619,25.339
	c14.756,0,19.604-24.352,19.604-24.352S153.101,54.918,143.317,54.918z"/>
<path fill="#8D3B26" d="M143.149,48.464c-8.078,0-10.719,6.886-10.719,6.886s6.796-2.122,10.719-2.122
	c3.92,0,10.716,1.786,10.716,1.786S151.225,48.464,143.149,48.464z"/>
<polygon fill="#2B2B2B" points="122.311,30.984 122.957,34.597 126.93,40.65 125.878,35.894 "/>
<polygon fill="#2B2B2B" points="159.544,40.65 163.519,34.597 164.166,30.984 160.598,35.894 "/>
<polygon fill="#878F94" points="111.442,58.475 136.394,98.099 143.27,93.741 118.051,54.983 "/>
<polygon fill="#878F94" points="145.115,93.412 151.992,97.77 173.869,58.475 167.257,54.983 "/>
<polygon fill="#DD5D00" points="142.533,71.458 128.538,53.576 124.817,56.638 142.863,79.315 160.911,56.44 157.256,53.816 "/>
<path fill="#8D3B26" d="M158.303,5.829c-1.346-2.702-7.282-5.004-10.655-5.549c-3.374-0.545-7.692-0.147-9.312-0.014
	c-1.621,0.133-12.425,5.515-13.642,7.538c-1.218,2.023-4.873,8.765-5.553,11.869c-0.68,3.103,2.414,9.991,3.333,11.612
	c0,0,10.465-0.775,12.424-1.138c18.112-3.369,24.067-8.104,23.485-6.864c-0.576,1.228,5.387,9.193,5.387,9.193
	s0.974-1.534,1.109-2.073c0.135-0.539,1.629-7.286,1.902-8.096c0.27-0.81-1.611-6.346-2.7-8.506
	C162.991,11.639,159.648,8.53,158.303,5.829z"/>
<rect x="95.841" y="133.525" fill="#555E66" width="93.839" height="5.268"/>
<path fill="#CDD0D2" d="M182.988,79.856h-80.124c-2.606,0-4.719,2.111-4.719,4.717v49.282h89.559V84.573
	C187.705,81.968,185.594,79.856,182.988,79.856z"/>
<rect x="98.146" y="133.855" fill="#CDD0D2" width="5.543" height="3.291"/>
<rect x="182.162" y="133.855" fill="#CDD0D2" width="5.543" height="3.291"/>
<path fill="#BFC4C6" d="M98.146,84.573v49.282h89.559l-84.84-53.999C100.259,79.856,98.146,81.968,98.146,84.573z"/>
<circle fill="#8B9398" cx="144.121" cy="105.761" r="5.773"/>
<path fill="#E2E3E5" d="M226.765,132.843c12.505,0,22.644-14.101,22.644-28.495h-45.288
	C204.121,118.742,214.26,132.843,226.765,132.843z"/>
<path fill="#E2E3E5" d="M248.444,108.4c-0.021,0-0.04,0.004-0.062,0.004c-0.062,1.021-0.173,2.025-0.334,3.01
	c0.358-0.083,0.729-0.132,1.113-0.132c2.71,0,5.181,2.211,4.906,4.907c-0.343,3.354-4.659,6.128-9.255,4.536
	c-0.777,1.38-1.182,2.071-2.165,3.255c7.706,0.578,13.396-1.826,13.964-7.411C257.072,112.081,252.955,108.4,248.444,108.4z"/>
<path fill="#C1D64B" d="M226.765,130.079c9.994,0,16.634-7.06,19.716-18.208h-39.432
	C209.986,122.949,216.825,130.079,226.765,130.079z"/>
<path fill="#D1D1D8" d="M228.992,130.079c-11.705,0-20.349-12.349-21.41-25.731h-3.461c0,14.395,10.139,28.495,22.644,28.495
	c6.609,0,12.555-3.938,16.693-9.776C239.535,127.349,234.492,130.079,228.992,130.079z"/>
<ellipse fill="#B3ABA4" cx="226.765" cy="114.774" rx="13.102" ry="1.548"/>
<path fill="#E2E3E5" d="M235.375,130.687h-17.222c-0.443,0-0.805,0.362-0.805,0.806v2.293c0,0.443,0.362,0.806,0.805,0.806h17.222
	c0.443,0,0.803-0.362,0.803-0.806v-2.293C236.179,131.049,235.818,130.687,235.375,130.687z"/>
<path fill="#FFFFFF" d="M230.984,128.297c6.836,0,12.51-11.273,13.635-23.949h-27.27
	C218.476,117.023,224.149,128.297,230.984,128.297z"/>
<path fill="#E2E3E5" d="M226.765,136.581c16.835,0,30.485-4.176,30.485-9.327H196.28
	C196.28,132.405,209.929,136.581,226.765,136.581z"/>
<path fill="#D1D1D8" d="M201.977,127.254h-5.697c0,5.151,13.649,9.327,30.484,9.327c13.737,0,25.349-2.779,29.158-6.602
	c-5.531,2.357-14.561,3.895-24.771,3.895C217.394,133.874,205.77,131.085,201.977,127.254z"/>
<path fill="#A2A8AC" d="M242.494,135.25h-31.458c-0.325,0-0.587,0.265-0.587,0.588v0.156c0,0.323,0.263,0.587,0.587,0.587h31.458
	c0.322,0,0.588-0.264,0.588-0.587v-0.156C243.082,135.515,242.816,135.25,242.494,135.25z"/>
<ellipse transform="matrix(-0.3056 -0.9522 0.9522 -0.3056 189.0789 408.136)" fill="#8D3B26" cx="243.366" cy="135.121" rx="4.635" ry="6.18"/>
<path fill="#2B2B2B" d="M241.511,133.769c-1.902,0.772-4.029,3.24-4.029,3.24s3.229-1.564,4.375-1.404
	c1.147,0.16,3.741,0.908,4.676,0.406c0.934-0.502,2.225-2.025,2.589-3.109c0,0-1.199,1.122-2.409,1.145
	C245.502,134.069,243.413,132.995,241.511,133.769z"/>
<path fill="#AE4209" d="M245.183,138.634c-3.25,1.044-6.519-0.086-7.301-2.523c-0.244-0.76-0.192-1.553,0.059-2.32
	c-0.59,1.029-0.801,2.156-0.459,3.219c0.782,2.438,4.051,3.569,7.301,2.525c2.238-0.719,3.856-2.283,4.408-3.983
	C248.428,136.885,247.016,138.046,245.183,138.634z"/>
<ellipse transform="matrix(0.1341 -0.991 0.991 0.1341 81.6022 357.8798)" fill="#A43901" cx="245.586" cy="132.246" rx="1.14" ry="2.337"/>
<ellipse transform="matrix(-0.3056 -0.9521 0.9521 -0.3056 172.427 399.4476)" fill="#8D3B26" cx="231.862" cy="136.853" rx="3.495" ry="4.659"/>
<path fill="#2B2B2B" d="M230.465,135.833c-1.436,0.583-3.039,2.443-3.039,2.443s2.435-1.179,3.3-1.059
	c0.865,0.121,2.819,0.686,3.525,0.307c0.704-0.379,1.679-1.526,1.952-2.346c0,0-0.905,0.846-1.817,0.864
	C233.473,136.061,231.898,135.25,230.465,135.833z"/>
<path fill="#AE4209" d="M233.234,139.502c-2.452,0.787-4.917-0.064-5.507-1.903c-0.183-0.571-0.142-1.17,0.045-1.749
	c-0.443,0.775-0.604,1.626-0.346,2.427c0.59,1.838,3.053,2.691,5.505,1.904c1.687-0.542,2.907-1.722,3.324-3.003
	C235.679,138.183,234.615,139.059,233.234,139.502z"/>
<ellipse transform="matrix(0.135 -0.9908 0.9908 0.135 68.5542 347.9009)" fill="#A43901" cx="233.537" cy="134.686" rx="0.859" ry="1.762"/>
<path fill="#C60A40" d="M231.346,88.604h-19.143c-0.479,0-0.87,0.39-0.87,0.869v10.875c0,0.589,0.479,1.065,1.066,1.065h18.75
	c0.587,0,1.066-0.477,1.066-1.065V89.474C232.215,88.994,231.825,88.604,231.346,88.604z"/>
<polygon fill="#C60A40" points="213.13,104.127 218.822,101.414 213.13,101.414 "/>
<path fill="#DB5347" d="M231.235,88.669h-8.014v8.607c0,0.635,0.523,1.149,1.167,1.149h7.798v-8.819
	C232.187,89.089,231.761,88.669,231.235,88.669z"/>
<g>
	<g>
		<g>
			<path fill="#FF9633" d="M244.045,84.843h-19.143c-0.479,0-0.869,0.388-0.869,0.869v10.874c0,0.589,0.479,1.066,1.066,1.066
				h18.749c0.588,0,1.066-0.478,1.066-1.066V85.712C244.915,85.23,244.524,84.843,244.045,84.843z"/>
		</g>
		<g>
			<polygon fill="#FF9633" points="243.117,100.364 243.117,97.652 237.427,97.652 			"/>
		</g>
	</g>
</g>
<path fill="#878F94" d="M89.417,7.369c-1.649,0-2.999,1.348-2.999,2.997v31.402h5.996V10.366
	C92.414,8.717,91.065,7.369,89.417,7.369z"/>
<path fill="#006DA6" d="M95.782,17.816H51.629c-1.107,0-2.004,0.898-2.004,2.006v25.084c0,1.357,1.101,2.458,2.458,2.458h28.434
	l13.128,6.257v-6.257h1.685c1.357,0,2.457-1.101,2.457-2.458V19.822C97.786,18.714,96.888,17.816,95.782,17.816z"/>
<path fill="#E2E3E5" d="M54.854,10.529v34.829h31.563V10.529c0-1.739,1.35-3.16,2.999-3.16H57.853
	C56.204,7.369,54.854,8.791,54.854,10.529z"/>
<rect x="58.501" y="11.323" fill="#A2A8AC" width="20.457" height="1.026"/>
<rect x="58.501" y="12.973" fill="#A2A8AC" width="9.373" height="0.47"/>
<rect x="78.16" y="16.293" fill="#FF9633" width="5.147" height="4.806"/>
<rect x="71.738" y="34.436" fill="#FB6459" width="11.636" height="9.367"/>
<rect x="78.16" y="22.431" fill="#25A98B" width="5.147" height="4.808"/>
<rect x="78.16" y="28.57" fill="#DD5D00" width="5.147" height="4.807"/>
<rect x="58.501" y="16.364" fill="#5EA6FE" width="18.213" height="17.013"/>
<path fill="#FFFFFF" d="M63.696,20.509c-0.168,0-0.325,0.057-0.455,0.153c-0.159-0.36-0.491-0.609-0.874-0.609
	c-0.332,0-0.623,0.186-0.798,0.468c-0.109-0.059-0.232-0.095-0.363-0.095c-0.457,0-0.827,0.415-0.827,0.926
	c0,0.014,0,0.028,0.002,0.042l-0.002-0.001c-0.218,0-0.396,0.199-0.396,0.443c0,0.245,0.178,0.443,0.396,0.443h3.409v-0.006
	c0.403-0.051,0.715-0.424,0.715-0.879C64.503,20.905,64.141,20.509,63.696,20.509z"/>
<path fill="#FFFFFF" d="M74.235,18.984c-0.168,0-0.327,0.057-0.457,0.154c-0.159-0.362-0.493-0.611-0.876-0.611
	c-0.334,0-0.628,0.185-0.806,0.469c-0.109-0.059-0.232-0.095-0.362-0.095c-0.459,0-0.832,0.417-0.832,0.931c0,0.014,0,0.028,0,0.042
	l0,0c-0.22,0-0.398,0.199-0.398,0.444c0,0.247,0.178,0.445,0.398,0.445h3.425v-0.006c0.405-0.051,0.72-0.426,0.72-0.882
	C75.047,19.383,74.685,18.984,74.235,18.984z"/>
<path fill="#FFFFFF" d="M71.222,22.703c-0.121,0-0.234,0.04-0.327,0.109c-0.113-0.258-0.351-0.436-0.625-0.436
	c-0.239,0-0.448,0.133-0.573,0.335c-0.081-0.042-0.168-0.067-0.261-0.067c-0.327,0-0.592,0.297-0.592,0.665c0,0.009,0,0.02,0,0.03
	l0,0c-0.159,0-0.284,0.142-0.284,0.317s0.125,0.317,0.284,0.317h2.445v-0.005c0.289-0.036,0.514-0.304,0.514-0.63
	C71.802,22.987,71.542,22.703,71.222,22.703z"/>
<polygon fill="#3D3D3D" points="59.681,33.287 67.394,33.287 67.271,19.762 "/>
<polygon fill="#555E66" points="67.394,33.287 74.898,33.287 67.271,19.762 "/>
<polygon fill="#D1D1D1" points="66.133,23.247 65.982,24.323 66.764,23.373 67.271,25.59 67.271,19.736 64.994,23.84 "/>
<polygon fill="#FFFFFF" points="67.271,19.736 67.271,25.59 67.777,23.373 68.559,24.323 68.41,23.247 69.547,23.84 "/>
<polygon fill="#3D3D3D" points="60.751,33.287 60.751,28.947 58.363,33.287 "/>
<polygon fill="#555E66" points="60.751,33.287 63.177,33.287 60.751,28.947 "/>
<polygon fill="#3D3D3D" points="72.124,33.287 72.124,25.493 67.742,33.287 "/>
<polygon fill="#555E66" points="72.124,33.287 76.667,33.287 72.124,25.493 "/>
<rect x="58.363" y="34.436" fill="#FF9633" width="11.639" height="9.367"/>
<path fill="#FFB066" d="M68.041,37.364c-0.157,0-0.301,0.042-0.422,0.117c-0.149-0.278-0.457-0.471-0.813-0.471
	c-0.308,0-0.581,0.143-0.744,0.361c-0.102-0.045-0.216-0.072-0.336-0.072c-0.426,0-0.77,0.321-0.77,0.718c0,0.011,0,0.021,0,0.032
	l0,0c-0.204,0-0.37,0.153-0.37,0.342s0.166,0.342,0.37,0.342h3.172v-0.005c0.375-0.038,0.666-0.328,0.666-0.68
	C68.793,37.669,68.457,37.364,68.041,37.364z"/>
<path fill="#FFBC7D" d="M64.328,36.267c-0.085,0-0.163,0.023-0.227,0.064c-0.081-0.152-0.249-0.256-0.441-0.256
	c-0.168,0-0.315,0.078-0.402,0.196c-0.057-0.025-0.119-0.039-0.183-0.039c-0.232,0-0.417,0.174-0.417,0.389c0,0.006,0,0.011,0,0.018
	l0,0c-0.111,0-0.201,0.083-0.201,0.185c0,0.103,0.09,0.186,0.201,0.186h1.718v-0.002c0.204-0.021,0.36-0.179,0.36-0.369
	C64.736,36.433,64.553,36.267,64.328,36.267z"/>
<path fill="#FFBC7D" d="M68.751,39.041c-0.085,0-0.164,0.023-0.23,0.064c-0.081-0.152-0.246-0.256-0.44-0.256
	c-0.166,0-0.313,0.078-0.403,0.196c-0.054-0.026-0.116-0.04-0.182-0.04c-0.23,0-0.417,0.174-0.417,0.388c0,0.006,0,0.012,0,0.018
	V39.41c-0.109,0-0.199,0.084-0.199,0.188c0,0.102,0.09,0.185,0.199,0.185h1.717V39.78c0.204-0.021,0.362-0.178,0.362-0.368
	C69.158,39.207,68.976,39.041,68.751,39.041z"/>
<path fill="#FFB066" d="M62.846,38.115c-0.157,0-0.304,0.043-0.424,0.118c-0.147-0.279-0.455-0.471-0.813-0.471
	c-0.308,0-0.581,0.143-0.744,0.362c-0.102-0.047-0.216-0.073-0.336-0.073c-0.424,0-0.77,0.321-0.77,0.718
	c0,0.011,0.001,0.021,0.001,0.031h-0.001c-0.204,0-0.368,0.154-0.368,0.343s0.165,0.344,0.368,0.344h3.171v-0.005
	c0.375-0.041,0.666-0.329,0.666-0.681C63.596,38.421,63.26,38.115,62.846,38.115z"/>
<circle fill="#FFD638" cx="64.252" cy="39.647" r="1.743"/>
<rect x="58.363" y="39.818" fill="#F17D03" width="11.639" height="3.984"/>
<path fill="#2B2B2B" d="M216.854,16.174l-4.565,2.009c-4.211,1.855-6.14,6.816-4.285,11.027c1.855,4.212,6.818,6.14,11.027,4.285
	l4.565-2.009c4.209-1.854,6.138-6.817,4.283-11.027C226.026,16.248,221.063,14.319,216.854,16.174z"/>
<path fill="#DD5D00" d="M227.632,17.939c-0.175-0.396-0.642-0.578-1.04-0.402c-0.398,0.174-0.578,0.642-0.405,1.04l1.936,4.395
	c0.175,0.396,0.645,0.578,1.04,0.404c0.398-0.174,0.58-0.643,0.405-1.04L227.632,17.939z"/>
<path fill="#475059" d="M204.36,44.908c-0.225-0.337-0.659-0.464-1.031-0.301c-0.421,0.185-0.611,0.678-0.426,1.099l1.878,4.267
	c0.185,0.421,0.678,0.612,1.099,0.426l0.747-0.327c0.474-0.21,0.644-0.796,0.357-1.227L204.36,44.908z"/>
<path fill="#2B2B2B" d="M203.709,45.195c-0.223-0.336-0.659-0.464-1.031-0.301c-0.421,0.186-0.611,0.678-0.426,1.099l1.878,4.267
	c0.185,0.421,0.678,0.613,1.099,0.426l0.746-0.327c0.474-0.208,0.645-0.796,0.358-1.227L203.709,45.195z"/>
<path fill="#E2E3E5" d="M201.771,41.376l-8.805,3.878l10.093,14.104c0.36,0.502,1.023,0.684,1.59,0.435l3.186-1.403
	c0.658-0.291,0.959-1.062,0.668-1.721L201.771,41.376z"/>
<path fill="#D1D1D8" d="M199.135,44.314l3.29-1.45l-0.654-1.488l-8.805,3.878l10.093,14.104c0.36,0.502,1.023,0.684,1.59,0.435
	l0.921-0.406l-7.642-10.676C196.844,47.194,197.427,45.065,199.135,44.314z"/>
<path fill="#475059" d="M196.186,33.18c-1.718-3.898-6.311-5.683-10.21-3.966l0,0c-3.899,1.716-5.685,6.312-3.968,10.209
	l0.912,2.073c1.717,3.898,6.311,5.684,10.209,3.967l0,0c3.899-1.716,5.686-6.311,3.968-10.21L196.186,33.18z"/>
<rect x="188.002" y="25.671" transform="matrix(-0.403 -0.9152 0.9152 -0.403 245.1149 228.0585)" fill="#FF7C00" width="17.882" height="16.819"/>
<polygon fill="#E2E3E5" points="201.037,22.509 208.243,38.874 229.259,39.481 214.781,6.597 "/>
<path fill="#475059" d="M217.138,5.73c-0.277-0.63-1.021-0.919-1.651-0.642c-0.633,0.278-0.921,1.022-0.642,1.653l14.351,32.595
	c0.277,0.63,1.021,0.919,1.653,0.642c0.63-0.277,0.919-1.021,0.642-1.654L217.138,5.73z"/>
<path fill="#475059" d="M199.81,28.798c-0.18-0.41-0.661-0.597-1.071-0.417l-7.829,3.447c-0.41,0.181-0.597,0.663-0.417,1.072
	l0.085,0.192c0.18,0.409,0.661,0.596,1.071,0.416l7.829-3.447c0.41-0.18,0.597-0.662,0.417-1.071L199.81,28.798z"/>
<path fill="#475059" d="M201.136,31.811c-0.18-0.41-0.661-0.597-1.071-0.417l-7.829,3.447c-0.41,0.18-0.597,0.663-0.417,1.072
	l0.085,0.192c0.18,0.409,0.661,0.596,1.071,0.416l7.829-3.447c0.41-0.18,0.597-0.662,0.417-1.071L201.136,31.811z"/>
<path fill="#475059" d="M202.463,34.824c-0.18-0.41-0.661-0.597-1.071-0.417l-7.829,3.447c-0.41,0.18-0.597,0.663-0.417,1.072
	l0.085,0.192c0.18,0.409,0.663,0.596,1.071,0.416l7.829-3.447c0.41-0.18,0.597-0.662,0.417-1.071L202.463,34.824z"/>
<path fill="#D1D1D8" d="M205.848,33.152l-15.495,6.823l-0.031-0.07c-3.19,1.246-6.765,0.239-8.85-2.295
	c0.104,0.611,0.274,1.22,0.535,1.813l0.912,2.073c1.672,3.796,6.069,5.579,9.899,4.085l0.031,0.071l15.393-6.778l21.017,0.607
	l-4.169-9.471L205.848,33.152z"/>
<path fill="#2B2B2B" d="M181.88,37.158c-0.175-0.4-0.649-0.584-1.049-0.408c-0.4,0.177-0.585,0.649-0.408,1.049l2.675,6.076
	c0.178,0.403,0.649,0.585,1.052,0.41c0.4-0.178,0.583-0.65,0.407-1.052L181.88,37.158z"/>
<path fill="#FFFFFF" d="M199.108,24.24l-11.366,5.005c-0.668,0.294-0.974,1.08-0.68,1.747c0.293,0.667,1.08,0.972,1.748,0.679
	l11.366-5.003c0.668-0.295,0.974-1.082,0.68-1.749C200.563,24.252,199.776,23.946,199.108,24.24z"/>
<path fill="#DD5D00" d="M36.483,59.086c0,0-5.254-0.081-8.059,3.64c-2.276,3.019-2.29,7.597-2.29,7.597s-2.388-2.965-2.702-7.15
	c-0.39-5.209,3.174-7.898,0.428-12.645c-1.744-3.016-5.988-3.752-5.988-3.752s1.393,2.715,0.906,3.883
	c-1.432,3.428-2.337,4.251-6.111,8.166c-3.773,3.916-3.841,12.279-3.841,12.279s-1.232-4.457-3.487-6.954
	C3.043,61.603,0,62.602,0,62.602s1.698,3.058,1.633,6.611c-0.066,3.554-3.7,9.876,0.245,18.51
	c3.945,8.635,12.25,10.645,17.738,10.729c4.671,0.072,14.393-1.659,17.494-11.461c2.491-7.873-1.153-14.112-1.846-18.931
	C34.571,63.239,36.483,59.086,36.483,59.086z"/>
<path fill="#DD5D00" d="M31.487,46.488c0,0,0.157,2.191-1.323,3.791c-0.646,0.699-1.889,1.024-2.207,1.66
	c-0.643,1.282,0.354,5.792,0.354,5.792s1.085-1.606,4.273-2.827c1.198-0.458,1.301-2.59,0.488-5.003
	C32.62,48.559,31.487,46.488,31.487,46.488z"/>
<path fill="#DD5D00" d="M7.919,54.737c-0.662-1.599,0.025-3.149,0.025-3.149s-1.367,1.181-2.047,2.026
	c-1.222,1.523-1.704,3.108-0.95,3.792c2.006,1.817,2.377,3.303,2.377,3.303s1.905-2.999,1.772-4.121
	C9.028,56.031,8.208,55.433,7.919,54.737z"/>
<path fill="#DD5D00" d="M15.143,43.281c0,0-0.886,0.764-1.326,1.312c-0.792,0.985-1.104,2.012-0.616,2.454
	c1.299,1.177,1.539,2.139,1.539,2.139s1.233-1.942,1.147-2.667c-0.042-0.36-0.574-0.749-0.761-1.198
	C14.698,44.286,15.143,43.281,15.143,43.281z"/>
<path fill="#FF7C00" d="M31.527,71.676c0,0-3.025,1.087-4.2,4.013c-0.957,2.383-1.077,3.983-1.077,3.983s-2.264-0.428-4.089-4.1
	c-1.178-2.37-0.826-4.574-1.124-7.272c-0.267-2.412-3.026-6.792-3.026-6.792s0.031,2.275-2.483,4.823
	c-0.946,0.959-2.834,3.049-3.497,5.515c-0.783,2.918-0.652,6.967-0.652,6.967s-1.244-0.074-2.674-1.173
	c-1.07-0.822-3.662-4.334-3.662-4.334s-1.338,5.045-1.381,7.351c-0.042,2.304-0.229,4.786,2.546,10.39
	c2.774,5.603,9.461,7.343,13.309,7.402c3.276,0.051,11.218-1.501,13.383-7.854c1.739-5.104,1-8.109-0.095-11.052
	C31.659,76.462,31.527,71.676,31.527,71.676z"/>
<path fill="#FF9633" d="M25.943,83.158c0,0-1.726,0.62-2.397,2.291c-0.547,1.359-0.615,2.273-0.615,2.273s-1.292-0.244-2.334-2.34
	c-0.673-1.354-0.472-2.612-0.642-4.153c-0.152-1.376-1.728-3.876-1.728-3.876s0.019,1.298-1.417,2.754
	c-0.541,0.547-1.619,1.739-1.997,3.146c-0.448,1.668-0.373,3.979-0.373,3.979s-0.71-0.041-1.527-0.669
	c-0.61-0.471-2.09-2.475-2.09-2.475s-0.765,2.881-0.789,4.195c-0.024,1.316-0.13,2.733,1.454,5.933
	c1.583,3.199,5.401,4.193,7.599,4.227c1.87,0.029,6.404-0.856,7.641-4.484c0.993-2.914,0.571-4.629-0.055-6.31
	C26.019,85.89,25.943,83.158,25.943,83.158z"/>
<path fill="#CDCFD2" d="M70.627,129.044h7.538c2.305,0,4.172-1.867,4.172-4.169v-10.176H70.627V129.044z"/>
<path fill="#878F94" d="M73.761,124.708v-45.76c0-2.272-1.843-4.115-4.117-4.115s-4.117,1.843-4.117,4.115v50.096h12.349
	C75.613,129.044,73.761,127.093,73.761,124.708z"/>
<path fill="#129DAB" d="M22.212,79.169v61.218h43.315V79.169c0-2.386,1.853-4.336,4.115-4.336H26.326
	C24.063,74.833,22.212,76.783,22.212,79.169z"/>
<rect x="26.441" y="86.857" fill="#A2A8AC" width="35.584" height="0.586"/>
<rect x="26.441" y="88.518" fill="#A2A8AC" width="35.584" height="0.585"/>
<rect x="26.441" y="90.177" fill="#A2A8AC" width="35.584" height="0.585"/>
<rect x="26.441" y="91.837" fill="#A2A8AC" width="35.584" height="0.586"/>
<rect x="26.441" y="93.496" fill="#A2A8AC" width="35.584" height="0.586"/>
<rect x="26.441" y="95.156" fill="#A2A8AC" width="35.584" height="0.585"/>
<rect x="26.441" y="96.815" fill="#A2A8AC" width="35.584" height="0.585"/>
<rect x="26.441" y="98.476" fill="#A2A8AC" width="35.584" height="0.586"/>
<rect x="26.441" y="100.135" fill="#A2A8AC" width="35.584" height="0.586"/>
<rect x="26.441" y="101.795" fill="#A2A8AC" width="35.584" height="0.585"/>
<rect x="26.441" y="103.454" fill="#A2A8AC" width="35.584" height="0.587"/>
<rect x="26.775" y="109.21" fill="#A2A8AC" width="35.585" height="0.586"/>
<rect x="26.775" y="110.869" fill="#A2A8AC" width="35.585" height="0.586"/>
<rect x="26.775" y="112.529" fill="#A2A8AC" width="35.585" height="0.585"/>
<rect x="26.775" y="114.188" fill="#A2A8AC" width="35.585" height="0.586"/>
<rect x="26.775" y="115.849" fill="#A2A8AC" width="35.585" height="0.586"/>
<rect x="26.775" y="117.508" fill="#A2A8AC" width="35.585" height="0.586"/>
<rect x="26.775" y="119.168" fill="#A2A8AC" width="35.585" height="0.585"/>
<rect x="26.775" y="120.827" fill="#A2A8AC" width="35.585" height="0.586"/>
<rect x="26.775" y="122.487" fill="#A2A8AC" width="35.585" height="0.586"/>
<rect x="26.775" y="124.146" fill="#A2A8AC" width="35.585" height="0.586"/>
<rect x="26.775" y="125.807" fill="#A2A8AC" width="35.585" height="0.585"/>
<rect x="26.131" y="80.368" fill="#555E66" width="36.335" height="1.408"/>
<rect x="26.131" y="82.632" fill="#A2A8AC" width="16.649" height="0.646"/>
<rect x="24.829" y="128.711" fill="#5EA6FE" width="38.45" height="3.503"/>
<path fill="#266193" d="M75.625,96.873H16.098c-2.264,0-4.098,1.834-4.098,4.098v17.112c0,2.264,1.834,4.099,4.098,4.099h59.527
	c2.262,0,4.098-1.835,4.098-4.099v-17.112C79.724,98.707,77.888,96.873,75.625,96.873z"/>
<polygon fill="#C60A40" points="56.188,128.992 62.36,122.182 50.351,122.182 "/>
<path fill="#FFFFFF" d="M26.057,104.932c-1.498,0.012-2.7,1.208-2.746,2.692c-0.069-1.483-1.29-2.66-2.788-2.648
	c-1.534,0.012-2.767,1.265-2.755,2.8c0.03,3.792,5.223,6.478,5.587,6.661c0,0.006,0,0.011,0,0.011s0.005-0.003,0.011-0.005
	c0.005,0.002,0.011,0.005,0.011,0.005s0-0.006,0-0.011c0.361-0.189,5.51-2.956,5.48-6.75
	C28.845,106.152,27.591,104.918,26.057,104.932z"/>
<polygon fill="#FFFFFF" points="50.132,114.838 50.132,111.137 47.048,112.343 "/>
<ellipse fill="#FFFFFF" cx="45.149" cy="108.88" rx="6.672" ry="4.339"/>
<path fill="#FFFFFF" d="M70.208,109.602c-0.595,0.906-1.616,1.506-2.779,1.506c-1.166,0-2.187-0.6-2.781-1.506
	c-1.918,0.729-3.231,2.282-3.231,4.598v0.527h12.024v-0.527C73.441,111.884,72.129,110.33,70.208,109.602z"/>
<circle fill="#FFFFFF" cx="67.429" cy="107.559" r="2.906"/>
<rect x="114.934" y="121.304" transform="matrix(-0.6699 -0.7425 0.7425 -0.6699 121.0309 300.4861)" fill="#FF9633" width="24.768" height="4.064"/>
<rect x="111.918" y="124.027" transform="matrix(-0.6699 -0.7425 0.7425 -0.6699 113.9767 302.7921)" fill="#FF7C00" width="24.767" height="4.062"/>
<rect x="108.9" y="126.749" transform="matrix(-0.6699 -0.7424 0.7424 -0.6699 106.9311 305.0982)" fill="#DD5D00" width="24.769" height="4.062"/>
<path fill="#FB6459" d="M111.646,103.067c-2.212-2.453-6.031-2.648-8.483-0.437c-2.452,2.213-2.648,6.03-0.436,8.482l4.039,4.476
	c2.212,2.452,6.029,2.648,8.483,0.436c2.452-2.214,2.648-6.029,0.434-8.482L111.646,103.067z"/>
<rect x="106.234" y="106.426" transform="matrix(-0.6698 -0.7425 0.7425 -0.6698 103.6116 271.1133)" fill="#DEDFE3" width="11.702" height="12.188"/>
<path fill="#FFB066" d="M137.123,131.17l-9.049,8.165l12.64,6.169c0.739,0.36,1.533-0.355,1.251-1.127L137.123,131.17z"/>
<path fill="#4F5054" d="M140.984,141.703l-2.829,2.553l2.874,1.402c0.623,0.304,1.293-0.302,1.056-0.953L140.984,141.703z"/>
<rect x="108.844" y="103.219" transform="matrix(-0.6697 -0.7426 0.7426 -0.6697 101.1484 263.6096)" fill="#AFADAE" width="0.697" height="12.187"/>
<rect x="114.665" y="109.672" transform="matrix(-0.6717 -0.7409 0.7409 -0.6717 106.4996 278.7303)" fill="#AFADAE" width="0.699" height="12.187"/>
</svg>
