<?xml version="1.0" encoding="utf-8"?>
<!-- Generator: Adobe Illustrator 15.1.0, SVG Export Plug-In  -->
<!DOCTYPE svg PUBLIC "-//W3C//DTD SVG 1.1//EN" "http://www.w3.org/Graphics/SVG/1.1/DTD/svg11.dtd" [
	<!ENTITY ns_flows "http://ns.adobe.com/Flows/1.0/">
]>
<svg version="1.1"
	 xmlns="http://www.w3.org/2000/svg" xmlns:xlink="http://www.w3.org/1999/xlink" xmlns:a="http://ns.adobe.com/AdobeSVGViewerExtensions/3.0/"
	 x="0px" y="0px" width="300px" height="300px" viewBox="222.699 -17.665 300 300" enable-background="new 222.699 -17.665 300 300"
	 xml:space="preserve">
<defs>
</defs>
<g>
	<defs>
		<rect id="SVGID_1_" x="233.7" width="285.729" height="249.435"/>
	</defs>
	<clipPath id="SVGID_2_">
		<use xlink:href="#SVGID_1_"  overflow="visible"/>
	</clipPath>
	<g clip-path="url(#SVGID_2_)">
		<path fill="#001A45" d="M194.299,257.523l-0.705-1.014l1.957-1.362l0.706,1.014L194.299,257.523z M198.213,254.799l-0.706-1.014
			l1.958-1.363l0.705,1.014L198.213,254.799z M202.125,252.073l-0.705-1.014l1.957-1.363l0.706,1.014L202.125,252.073z
			 M206.039,249.348l-0.705-1.014l1.957-1.362l0.705,1.014L206.039,249.348z M209.953,246.622l-0.706-1.013l1.956-1.362l0.706,1.013
			L209.953,246.622z M213.866,243.896l-0.706-1.013l1.956-1.361l0.706,1.012L213.866,243.896z M217.779,241.17l-0.706-1.012
			l1.956-1.364l0.706,1.014L217.779,241.17z M221.692,238.445l-0.706-1.014l1.958-1.362l0.706,1.013L221.692,238.445z
			 M225.605,235.72l-0.706-1.013l1.957-1.363l0.706,1.013L225.605,235.72z M229.519,232.994l-0.705-1.014l1.956-1.362l0.707,1.013
			L229.519,232.994z M233.432,230.269l-0.706-1.013l1.957-1.363l0.706,1.014L233.432,230.269z M237.345,227.543l-0.704-1.013
			l1.955-1.362l0.707,1.013L237.345,227.543z M241.259,224.817l-0.706-1.013l1.956-1.362l0.706,1.013L241.259,224.817z
			 M245.172,222.093l-0.705-1.014l1.955-1.362l0.707,1.013L245.172,222.093z M249.086,219.367l-0.707-1.013l1.957-1.363l0.705,1.013
			L249.086,219.367z M252.998,216.642l-0.705-1.013l1.957-1.363l0.706,1.015L252.998,216.642z M256.912,213.915l-0.707-1.012
			l1.958-1.363l0.705,1.013L256.912,213.915z M260.825,211.19l-0.706-1.014l1.957-1.362l0.706,1.013L260.825,211.19z
			 M264.739,208.464l-0.708-1.013l1.958-1.362l0.705,1.013L264.739,208.464z M268.652,205.74l-0.706-1.015l1.956-1.362l0.706,1.014
			L268.652,205.74z M272.564,203.014L271.859,202l1.956-1.362l0.705,1.013L272.564,203.014z M276.479,200.289l-0.706-1.014
			l1.957-1.363l0.705,1.014L276.479,200.289z M280.392,197.563l-0.706-1.013l1.957-1.364l0.706,1.014L280.392,197.563z
			 M284.305,194.838l-0.706-1.014l1.957-1.362l0.706,1.013L284.305,194.838z M288.218,192.111l-0.706-1.013l1.957-1.362l0.706,1.014
			L288.218,192.111z M292.131,189.385l-0.705-1.012l1.956-1.362l0.706,1.014L292.131,189.385z M296.045,186.66l-0.706-1.013
			l1.957-1.362l0.706,1.013L296.045,186.66z M299.958,183.936l-0.706-1.012l1.957-1.365l0.705,1.013L299.958,183.936z
			 M303.871,181.209l-0.705-1.013l1.955-1.362l0.706,1.013L303.871,181.209z M307.784,178.484l-0.706-1.014l1.958-1.362l0.705,1.014
			L307.784,178.484z M311.698,175.758l-0.706-1.013l1.956-1.361l0.707,1.012L311.698,175.758z M315.61,173.033l-0.706-1.013
			l1.958-1.363l0.705,1.013L315.61,173.033z M362.771,171.279l-1.516-1.842l0.953-0.785l1.516,1.841L362.771,171.279z
			 M365.503,170.561l-0.684-1.027l1.985-1.321l0.685,1.028L365.503,170.561z M319.524,170.309l-0.706-1.015l1.957-1.361l0.705,1.012
			L319.524,170.309z M369.474,167.919l-0.683-1.026l1.984-1.321l0.684,1.028L369.474,167.919z M359.739,167.597l-1.515-1.841
			l0.953-0.785l1.515,1.842L359.739,167.597z M323.437,167.583l-0.705-1.013l1.957-1.363l0.705,1.013L323.437,167.583z
			 M373.444,165.279l-0.684-1.028l1.985-1.321l0.684,1.03L373.444,165.279z M327.352,164.857l-0.706-1.014l1.955-1.362l0.707,1.014
			L327.352,164.857z M356.708,163.915l-1.515-1.84l0.953-0.785l1.515,1.841L356.708,163.915z M377.415,162.638l-0.684-1.027
			l1.986-1.319l0.684,1.027L377.415,162.638z M331.264,162.132l-0.705-1.013l1.956-1.364l0.706,1.015L331.264,162.132z
			 M353.677,160.233l-1.516-1.84l0.954-0.785l1.516,1.841L353.677,160.233z M381.387,159.997l-0.684-1.027l1.985-1.32l0.684,1.029
			L381.387,159.997z M335.178,159.405l-0.706-1.012l1.957-1.363l0.705,1.012L335.178,159.405z M385.358,157.357l-0.686-1.028
			l1.986-1.32l0.683,1.028L385.358,157.357z M339.09,156.68l-0.705-1.012l1.957-1.362l0.706,1.012L339.09,156.68z M350.646,156.551
			l-1.516-1.839l0.953-0.785l1.516,1.84L350.646,156.551z M389.328,154.716l-0.685-1.028l1.986-1.319l0.684,1.027L389.328,154.716z
			 M343.004,153.955l-0.706-1.014l1.956-1.362l0.707,1.013L343.004,153.955z M436.92,153.905l-1.516-1.841l0.953-0.785l1.516,1.842
			L436.92,153.905z M439.691,152.913l-0.685-1.028l1.984-1.321l0.686,1.027L439.691,152.913z M347.616,152.87l-1.476-1.792
			l0.427-0.352l-0.356-0.51l0.52-0.362l1.839,2.23L347.616,152.87z M393.299,152.075l-0.683-1.028l1.985-1.32l0.684,1.029
			L393.299,152.075z M443.66,150.269l-0.684-1.028l1.982-1.321l0.687,1.028L443.66,150.269z M433.889,150.224l-1.516-1.84
			l0.953-0.787l1.515,1.843L433.889,150.224z M397.271,149.435l-0.684-1.029l1.985-1.319l0.685,1.028L397.271,149.435z
			 M447.63,147.624l-0.685-1.027l1.982-1.323l0.686,1.028L447.63,147.624z M401.24,146.793l-0.683-1.027l1.984-1.32l0.685,1.028
			L401.24,146.793z M430.857,146.542l-1.516-1.841l0.953-0.786l1.516,1.843L430.857,146.542z M451.598,144.98l-0.685-1.027
			l1.984-1.323l0.685,1.027L451.598,144.98z M405.212,144.152l-0.684-1.028l1.986-1.32l0.683,1.029L405.212,144.152z
			 M427.826,142.859l-1.515-1.84l0.953-0.785l1.515,1.842L427.826,142.859z M455.565,142.337l-0.684-1.03l1.983-1.32l0.686,1.027
			L455.565,142.337z M409.183,141.512l-0.685-1.028l1.987-1.319l0.684,1.027L409.183,141.512z M459.534,139.689l-0.684-1.026
			l1.983-1.323l0.686,1.029L459.534,139.689z M424.795,139.179l-1.515-1.841l0.952-0.785l1.517,1.841L424.795,139.179z
			 M413.153,138.87l-0.683-1.026l1.984-1.32l0.684,1.027L413.153,138.87z M463.504,137.046l-0.685-1.026l1.983-1.323l0.684,1.026
			L463.504,137.046z M417.125,136.231l-0.685-1.029l1.986-1.32l0.683,1.028L417.125,136.231z M421.764,135.497l-1.515-1.841
			l0.953-0.784l1.516,1.839L421.764,135.497z M467.472,134.402l-0.685-1.027l1.984-1.323l0.686,1.027L467.472,134.402z
			 M471.44,131.758l-0.686-1.029l1.984-1.321l0.685,1.028L471.44,131.758z M475.408,129.112l-0.685-1.027l1.984-1.323l0.685,1.028
			L475.408,129.112z M479.378,126.469l-0.687-1.028l1.984-1.322l0.685,1.027L479.378,126.469z M483.346,123.824l-0.686-1.029
			l1.985-1.321l0.684,1.028L483.346,123.824z M487.313,121.179l-0.685-1.027l1.984-1.323l0.686,1.029L487.313,121.179z
			 M491.282,118.535l-0.685-1.027l1.984-1.323l0.685,1.027L491.282,118.535z M495.251,115.892l-0.685-1.028l1.984-1.322l0.684,1.027
			L495.251,115.892z M499.22,113.246l-0.686-1.027l1.985-1.323l0.684,1.028L499.22,113.246z M503.188,110.602l-0.687-1.028
			l1.985-1.322l0.686,1.027L503.188,110.602z"/>
		<g>
			
				<rect x="161.661" y="141.219" transform="matrix(0.5551 0.8318 -0.8318 0.5551 190.1115 -71.9149)" fill="#C60022" width="1.235" height="1.06"/>
			<path fill="#C60022" d="M164.823,140.799l-0.685-1.029l1.764-1.171l0.685,1.027L164.823,140.799z M168.35,138.454l-0.684-1.029
				l1.764-1.173l0.683,1.028L168.35,138.454z M171.875,136.107l-0.684-1.026l1.763-1.173l0.686,1.026L171.875,136.107z
				 M175.402,133.764l-0.685-1.029l1.764-1.172l0.684,1.028L175.402,133.764z M178.929,131.418l-0.685-1.029l1.764-1.173
				l0.684,1.029L178.929,131.418z M182.454,129.073l-0.684-1.029l1.764-1.172l0.684,1.028L182.454,129.073z M185.981,126.727
				l-0.685-1.027l1.763-1.173l0.685,1.027L185.981,126.727z M189.508,124.383l-0.685-1.028l1.764-1.173l0.683,1.028L189.508,124.383
				z M193.033,122.038l-0.684-1.029l1.763-1.173l0.684,1.029L193.033,122.038z M196.561,119.692l-0.685-1.029l1.763-1.172
				l0.684,1.029L196.561,119.692z M200.086,117.347l-0.684-1.028l1.763-1.173l0.685,1.028L200.086,117.347z M203.612,115.001
				l-0.684-1.027l1.764-1.172l0.682,1.028L203.612,115.001z M207.139,112.657l-0.684-1.028l1.763-1.173l0.685,1.028L207.139,112.657
				z M210.666,110.312l-0.685-1.028l1.764-1.172l0.683,1.028L210.666,110.312z M214.19,107.966l-0.683-1.028l1.763-1.172
				l0.684,1.028L214.19,107.966z M217.719,105.622l-0.686-1.028l1.764-1.172l0.684,1.028L217.719,105.622z M221.244,103.277
				l-0.684-1.029l1.763-1.172l0.684,1.028L221.244,103.277z M224.771,100.932l-0.684-1.028l1.763-1.173l0.683,1.028L224.771,100.932
				z M228.297,98.586l-0.684-1.028l1.762-1.172l0.685,1.028L228.297,98.586z M231.823,96.241l-0.685-1.028l1.764-1.172l0.683,1.028
				L231.823,96.241z M235.349,93.896l-0.683-1.029l1.762-1.172l0.685,1.028L235.349,93.896z M238.876,91.551l-0.685-1.028
				l1.764-1.172l0.684,1.028L238.876,91.551z"/>
			<polygon fill="#C60022" points="243.137,89.315 242.819,88.928 242.401,89.206 241.717,88.177 243.063,87.283 244.091,88.53 			
				"/>
			<path fill="#C60022" d="M257.241,106.448l-1.41-1.713l0.954-0.785l1.41,1.713L257.241,106.448z M254.422,103.021l-1.411-1.713
				l0.953-0.785l1.41,1.712L254.422,103.021z M251.601,99.594l-1.412-1.713l0.953-0.785l1.412,1.713L251.601,99.594z
				 M248.779,96.168l-1.41-1.713l0.952-0.786l1.411,1.714L248.779,96.168z M245.958,92.742l-1.411-1.714l0.955-0.784l1.409,1.713
				L245.958,92.742z"/>
			<polygon fill="#C60022" points="259.679,109.408 258.653,108.161 259.606,107.376 259.924,107.763 260.342,107.485 
				261.024,108.514 			"/>
			<path fill="#C60022" d="M262.812,107.326l-0.683-1.029l1.786-1.188l0.685,1.028L262.812,107.326z M266.387,104.948l-0.686-1.028
				l1.787-1.188l0.684,1.028L266.387,104.948z M269.96,102.572l-0.685-1.028l1.788-1.188l0.684,1.028L269.96,102.572z
				 M273.534,100.195l-0.685-1.028l1.787-1.188l0.685,1.029L273.534,100.195z M277.107,97.818l-0.684-1.028l1.787-1.189l0.684,1.028
				L277.107,97.818z M280.682,95.441l-0.684-1.029l1.787-1.188l0.683,1.028L280.682,95.441z M284.255,93.064l-0.684-1.028
				l1.787-1.188l0.685,1.028L284.255,93.064z M287.828,90.688l-0.682-1.028l1.785-1.188l0.685,1.028L287.828,90.688z
				 M291.403,88.311l-0.684-1.028l1.786-1.188l0.685,1.028L291.403,88.311z M294.978,85.934l-0.685-1.028l1.787-1.189l0.684,1.028
				L294.978,85.934z M298.552,83.558l-0.685-1.028l1.787-1.188l0.685,1.028L298.552,83.558z M302.125,81.181l-0.685-1.028
				l1.787-1.188l0.685,1.028L302.125,81.181z M305.698,78.804l-0.683-1.029l1.787-1.188l0.683,1.029L305.698,78.804z
				 M309.272,76.427l-0.683-1.029l1.785-1.188l0.685,1.028L309.272,76.427z M312.847,74.051l-0.685-1.028l1.787-1.189l0.684,1.029
				L312.847,74.051z"/>
			<polygon fill="#C60022" points="317.155,71.783 316.837,71.396 316.42,71.673 315.736,70.646 317.081,69.751 318.109,70.998 			
				"/>
			<path fill="#C60022" d="M331.262,88.916l-1.411-1.713l0.953-0.785l1.411,1.713L331.262,88.916z M328.439,85.489l-1.41-1.713
				l0.953-0.785l1.41,1.713L328.439,85.489z M325.62,82.063l-1.411-1.713l0.953-0.785l1.41,1.713L325.62,82.063z M322.798,78.636
				l-1.411-1.713l0.955-0.785l1.409,1.713L322.798,78.636z M319.978,75.209l-1.41-1.713l0.952-0.785l1.411,1.713L319.978,75.209z"/>
			<polygon fill="#C60022" points="333.699,91.877 332.672,90.629 333.624,89.844 333.941,90.23 334.356,89.952 335.044,90.978 			
				"/>
			<path fill="#C60022" d="M336.83,89.783l-0.687-1.026l1.787-1.195l0.687,1.026L336.83,89.783z M340.404,87.392l-0.688-1.026
				l1.787-1.196l0.688,1.027L340.404,87.392z M343.979,85l-0.688-1.026l1.788-1.195l0.686,1.026L343.979,85z M347.552,82.61
				l-0.687-1.027l1.786-1.195l0.688,1.026L347.552,82.61z M351.125,80.218l-0.686-1.026l1.787-1.195l0.686,1.026L351.125,80.218z
				 M354.698,77.827l-0.685-1.026l1.786-1.195l0.686,1.026L354.698,77.827z M358.272,75.437l-0.686-1.027l1.786-1.195l0.687,1.026
				L358.272,75.437z M361.848,73.045l-0.688-1.026l1.787-1.196l0.688,1.026L361.848,73.045z M365.421,70.654l-0.687-1.026
				l1.787-1.196l0.687,1.026L365.421,70.654z M368.994,68.263l-0.687-1.026l1.787-1.195l0.688,1.026L368.994,68.263z
				 M372.568,65.872l-0.687-1.026l1.787-1.196l0.686,1.027L372.568,65.872z M376.142,63.481l-0.687-1.026l1.786-1.196l0.688,1.026
				L376.142,63.481z M379.716,61.09l-0.688-1.026l1.787-1.195l0.688,1.026L379.716,61.09z M383.289,58.699l-0.687-1.026l1.787-1.196
				l0.687,1.027L383.289,58.699z M386.863,56.308l-0.688-1.026l1.787-1.196l0.688,1.026L386.863,56.308z M390.438,53.917
				l-0.688-1.027l1.787-1.195l0.686,1.026L390.438,53.917z M394.01,51.525l-0.686-1.026l1.787-1.195l0.686,1.026L394.01,51.525z
				 M397.585,49.135l-0.687-1.026l1.785-1.196l0.688,1.026L397.585,49.135z M401.157,46.744l-0.686-1.027l1.787-1.195l0.686,1.026
				L401.157,46.744z M404.731,44.353l-0.686-1.026l1.786-1.195l0.688,1.026L404.731,44.353z M408.307,41.961l-0.688-1.026
				l1.787-1.195l0.686,1.025L408.307,41.961z M411.879,39.571l-0.686-1.026l1.786-1.196l0.687,1.026L411.879,39.571z M415.453,37.18
				l-0.687-1.026l1.787-1.196l0.687,1.027L415.453,37.18z M419.025,34.789l-0.686-1.026l1.787-1.195l0.687,1.026L419.025,34.789z
				 M422.601,32.398l-0.687-1.026l1.786-1.196l0.688,1.026L422.601,32.398z M426.175,30.006l-0.688-1.026l1.787-1.196l0.687,1.027
				L426.175,30.006z"/>
			
				<rect x="429.228" y="26.278" transform="matrix(0.5562 0.8311 -0.8311 0.5562 213.0615 -345.3351)" fill="#C60022" width="1.234" height="1.059"/>
		</g>
		<polygon fill="#C60022" points="429.595,26.783 426.674,22.263 432.05,21.994 437.423,21.725 434.97,26.514 432.515,31.303 		"/>
		<g>
			
				<rect x="0.165" y="298.889" transform="matrix(0.5536 0.8328 -0.8328 0.5536 249.699 133.0072)" fill="#C60022" width="1.235" height="1.059"/>
			<path fill="#C60022" d="M3.327,298.466l-0.683-1.027l1.764-1.173l0.684,1.028L3.327,298.466z M6.854,296.122l-0.685-1.027
				l1.764-1.174l0.685,1.028L6.854,296.122z M10.38,293.776l-0.683-1.028l1.764-1.173l0.683,1.028L10.38,293.776z M13.906,291.432
				l-0.684-1.028l1.764-1.173l0.685,1.029L13.906,291.432z M17.434,289.086l-0.685-1.028l1.763-1.172l0.685,1.027L17.434,289.086z
				 M20.959,286.741l-0.683-1.028l1.763-1.173l0.684,1.029L20.959,286.741z M24.485,284.396l-0.683-1.027l1.762-1.173l0.686,1.027
				L24.485,284.396z M28.013,282.051l-0.685-1.028l1.763-1.174l0.685,1.029L28.013,282.051z M31.538,279.705l-0.683-1.027
				l1.762-1.173l0.685,1.028L31.538,279.705z M35.064,277.36l-0.684-1.028l1.763-1.173l0.685,1.028L35.064,277.36z M38.591,275.016
				l-0.684-1.028l1.763-1.173l0.685,1.028L38.591,275.016z M42.117,272.67l-0.684-1.027l1.764-1.174l0.684,1.029L42.117,272.67z
				 M45.643,270.325l-0.683-1.028l1.763-1.172l0.684,1.027L45.643,270.325z M49.171,267.979l-0.685-1.027l1.763-1.172l0.685,1.028
				L49.171,267.979z M52.696,265.635l-0.684-1.029l1.763-1.171l0.684,1.027L52.696,265.635z M56.223,263.29l-0.684-1.028
				l1.763-1.174l0.684,1.029L56.223,263.29z M59.749,260.944l-0.684-1.027l1.762-1.173l0.685,1.028L59.749,260.944z M63.275,258.6
				l-0.685-1.028l1.765-1.173l0.683,1.028L63.275,258.6z M66.801,256.256l-0.683-1.03l1.762-1.173l0.685,1.028L66.801,256.256z
				 M70.328,253.909l-0.685-1.027l1.764-1.173l0.685,1.027L70.328,253.909z M73.854,251.565l-0.684-1.03l1.763-1.171l0.685,1.027
				L73.854,251.565z M77.38,249.219l-0.684-1.027l1.764-1.173l0.684,1.028L77.38,249.219z"/>
			<polygon fill="#C60022" points="81.644,246.982 81.323,246.596 80.906,246.874 80.223,245.845 81.568,244.95 82.595,246.199 			
				"/>
			<path fill="#C60022" d="M95.748,264.115l-1.411-1.712l0.953-0.786l1.41,1.715L95.748,264.115z M92.926,260.69l-1.41-1.715
				l0.953-0.784l1.41,1.713L92.926,260.69z M90.105,257.263l-1.412-1.713l0.954-0.785l1.411,1.714L90.105,257.263z M87.283,253.837
				l-1.409-1.715l0.953-0.783l1.409,1.713L87.283,253.837z M84.463,250.41l-1.41-1.713l0.953-0.786l1.41,1.714L84.463,250.41z"/>
			<polygon fill="#C60022" points="98.186,267.076 97.157,265.83 98.11,265.045 98.428,265.431 98.846,265.153 99.53,266.182 			"/>
			<path fill="#C60022" d="M101.317,264.994l-0.685-1.028l1.787-1.189l0.683,1.029L101.317,264.994z M104.891,262.617l-0.683-1.028
				l1.786-1.189l0.684,1.029L104.891,262.617z M108.465,260.241l-0.685-1.03l1.788-1.188l0.684,1.027L108.465,260.241z
				 M112.039,257.864l-0.685-1.029l1.787-1.188l0.684,1.028L112.039,257.864z M115.612,255.486l-0.684-1.028l1.787-1.188
				l0.684,1.027L115.612,255.486z M119.187,253.11l-0.685-1.029l1.787-1.188l0.684,1.027L119.187,253.11z M122.761,250.733
				l-0.685-1.028l1.788-1.189l0.684,1.028L122.761,250.733z M126.334,248.355l-0.683-1.027l1.786-1.188l0.684,1.027L126.334,248.355
				z M129.908,245.979l-0.684-1.029l1.787-1.188l0.683,1.027L129.908,245.979z M133.481,243.603l-0.683-1.028l1.786-1.188
				l0.684,1.029L133.481,243.603z M137.057,241.226l-0.686-1.027l1.788-1.188l0.684,1.028L137.057,241.226z M140.63,238.848
				l-0.685-1.027l1.787-1.188l0.685,1.028L140.63,238.848z M144.204,236.473l-0.684-1.028l1.787-1.189l0.684,1.029L144.204,236.473z
				 M147.777,234.095l-0.684-1.027l1.787-1.188l0.684,1.028L147.777,234.095z M151.352,231.719l-0.684-1.028l1.787-1.188
				l0.684,1.028L151.352,231.719z"/>
			<polygon fill="#C60022" points="155.661,229.451 155.343,229.064 154.925,229.342 154.242,228.314 155.588,227.419 
				156.614,228.666 			"/>
			<path fill="#C60022" d="M169.766,246.585l-1.409-1.715l0.952-0.784l1.41,1.713L169.766,246.585z M166.945,243.157l-1.411-1.713
				l0.953-0.785l1.41,1.714L166.945,243.157z M164.124,239.731l-1.41-1.714l0.953-0.784l1.41,1.713L164.124,239.731z
				 M161.303,236.304l-1.409-1.712l0.952-0.786l1.411,1.714L161.303,236.304z M158.481,232.878l-1.409-1.714l0.953-0.785
				l1.409,1.714L158.481,232.878z"/>
			<polygon fill="#C60022" points="172.204,249.546 171.177,248.297 172.13,247.512 172.447,247.898 172.862,247.62 
				173.548,248.646 			"/>
			<path fill="#C60022" d="M175.335,247.451l-0.686-1.027l1.786-1.194l0.687,1.026L175.335,247.451z M178.909,245.061l-0.688-1.027
				l1.787-1.195l0.687,1.026L178.909,245.061z M182.482,242.669l-0.687-1.026l1.788-1.196l0.686,1.026L182.482,242.669z
				 M186.058,240.277l-0.688-1.026l1.787-1.194l0.688,1.026L186.058,240.277z M189.631,237.887l-0.687-1.026l1.787-1.194
				l0.686,1.025L189.631,237.887z M193.203,235.495l-0.685-1.025l1.786-1.196l0.688,1.026L193.203,235.495z M196.778,233.105
				l-0.687-1.027l1.787-1.195l0.685,1.027L196.778,233.105z M200.352,230.714l-0.687-1.027l1.787-1.194l0.687,1.025L200.352,230.714
				z M203.926,228.322l-0.688-1.025l1.787-1.196l0.688,1.025L203.926,228.322z M207.5,225.933l-0.688-1.028l1.787-1.194l0.687,1.026
				L207.5,225.933z M211.073,223.54l-0.687-1.026l1.786-1.194l0.688,1.025L211.073,223.54z M214.647,221.149l-0.688-1.026
				l1.787-1.196l0.687,1.026L214.647,221.149z M218.22,218.759l-0.686-1.027l1.788-1.195l0.685,1.027L218.22,218.759z
				 M221.794,216.367l-0.688-1.025l1.787-1.196l0.688,1.026L221.794,216.367z M225.368,213.976l-0.688-1.025l1.787-1.196
				l0.687,1.026L225.368,213.976z M228.941,211.586l-0.686-1.027l1.785-1.195l0.688,1.027L228.941,211.586z M232.516,209.194
				l-0.688-1.026l1.788-1.195l0.687,1.025L232.516,209.194z M236.09,206.803l-0.687-1.026l1.787-1.195l0.686,1.026L236.09,206.803z
				 M239.663,204.413l-0.687-1.028l1.787-1.193l0.686,1.025L239.663,204.413z M243.236,202.021l-0.687-1.025l1.787-1.195
				l0.688,1.025L243.236,202.021z M246.811,199.63l-0.687-1.026l1.787-1.196l0.687,1.027L246.811,199.63z M250.385,197.239
				l-0.688-1.027l1.787-1.193l0.687,1.024L250.385,197.239z M253.959,194.848l-0.688-1.025l1.787-1.196l0.687,1.026L253.959,194.848
				z M257.532,192.457l-0.687-1.026l1.786-1.195l0.687,1.026L257.532,192.457z M261.105,190.066l-0.687-1.028l1.786-1.193
				l0.688,1.026L261.105,190.066z M264.679,187.675l-0.687-1.025l1.787-1.197l0.687,1.027L264.679,187.675z"/>
			
				<rect x="267.731" y="183.947" transform="matrix(0.5562 0.8311 -0.8311 0.5562 272.4189 -141.1402)" fill="#C60022" width="1.236" height="1.058"/>
		</g>
		<polygon fill="#C60022" points="268.099,184.452 265.18,179.931 270.554,179.662 275.929,179.394 273.475,184.182 
			271.021,188.972 		"/>
		<polygon fill="#001A45" points="483.617,62.144 480.697,57.624 486.072,57.355 491.446,57.085 488.992,61.875 486.537,66.664 		
			"/>
		<polygon fill="#001A45" points="505.633,108.648 502.713,104.129 508.087,103.859 513.462,103.591 511.008,108.38 
			508.553,113.168 		"/>
		<polygon fill="#001A45" points="187.939,197.1 187.253,196.074 313.71,111.278 330.572,131.759 387.729,93.747 404.59,114.226 
			483.61,61.501 484.297,62.528 404.347,115.874 387.485,95.393 330.327,133.404 313.469,112.927 		"/>
	</g>
</g>
<path fill="#D1D3D4" d="M410.158,65.259c0,0-22.715-19.498-65.036-9.409c0,0-37.897,8.956-41.245,53.846
	c0,0-0.717,14.85,15.064,40.13c0,0,5.736,17.116,4.304,46.137l48.202-20.271l38.711-69.033V65.259z"/>
<path fill="#122B42" d="M353.383,160.413h-3.098c-0.226-1.093-0.524-2.148-0.9-3.173l2.59-1.493c0.619-0.359,0.831-1.152,0.478-1.78
	l-2.597-4.494c-0.364-0.619-1.16-0.832-1.774-0.475l-2.694,1.554c-0.721-0.823-1.51-1.591-2.355-2.295l1.499-2.595
	c0.356-0.624,0.144-1.415-0.478-1.775l-4.495-2.598c-0.617-0.353-1.41-0.143-1.771,0.479l-1.551,2.688
	c-1.032-0.352-2.101-0.62-3.194-0.81v-2.996c0-0.716-0.578-1.3-1.299-1.3h-5.186c-0.726,0-1.306,0.584-1.306,1.3v3.1
	c-1.087,0.221-2.143,0.521-3.171,0.897l-1.488-2.591c-0.363-0.625-1.157-0.835-1.783-0.479l-4.495,2.601
	c-0.619,0.356-0.83,1.151-0.472,1.771l1.553,2.691c-0.823,0.725-1.596,1.51-2.294,2.354l-2.593-1.496
	c-0.627-0.357-1.418-0.141-1.775,0.479l-2.602,4.495c-0.356,0.619-0.146,1.414,0.478,1.772l2.687,1.551
	c-0.35,1.033-0.618,2.098-0.804,3.189h-2.997c-0.721,0-1.301,0.587-1.301,1.303v5.189c0,0.718,0.58,1.296,1.301,1.296h3.101
	c0.218,1.093,0.516,2.155,0.894,3.176l-2.594,1.496c-0.62,0.359-0.826,1.154-0.475,1.772l2.596,4.493
	c0.356,0.621,1.153,0.837,1.775,0.48l2.692-1.554c0.727,0.824,1.515,1.598,2.355,2.297l-1.496,2.595
	c-0.36,0.621-0.149,1.417,0.472,1.773l4.501,2.597c0.621,0.356,1.414,0.144,1.77-0.474l1.556-2.69
	c1.032,0.349,2.095,0.619,3.19,0.804v3.002c0,0.719,0.581,1.296,1.295,1.296l5.196,0.004c0.717,0,1.298-0.581,1.298-1.3v-3.1
	c1.083-0.223,2.143-0.518,3.169-0.895l1.499,2.586c0.358,0.626,1.146,0.836,1.771,0.476l4.499-2.597
	c0.618-0.353,0.829-1.149,0.472-1.776l-1.554-2.688c0.825-0.723,1.596-1.512,2.3-2.355l2.596,1.498
	c0.623,0.36,1.41,0.146,1.773-0.475l2.595-4.498c0.356-0.621,0.145-1.416-0.473-1.771l-2.689-1.556
	c0.349-1.028,0.618-2.097,0.807-3.187h2.999c0.715,0,1.293-0.583,1.294-1.303v-5.192C354.68,160.99,354.097,160.413,353.383,160.413
	z M329.438,174.954c-5.721,0-10.358-4.641-10.358-10.358c0-5.724,4.638-10.36,10.358-10.36c5.722,0,10.358,4.637,10.358,10.36
	C339.796,170.313,335.159,174.954,329.438,174.954z"/>
<path fill="#1C4563" d="M329.436,148.196c-9.059,0-16.4,7.341-16.4,16.401c0,9.052,7.342,16.399,16.4,16.399
	c9.06,0,16.403-7.348,16.403-16.399C345.839,155.537,338.495,148.196,329.436,148.196z M329.438,178.063
	c-7.439,0-13.47-6.031-13.47-13.468c0-7.44,6.03-13.473,13.47-13.473s13.467,6.032,13.467,13.473
	C342.904,172.032,336.877,178.063,329.438,178.063z"/>
<path fill="#1C4563" d="M329.436,148.196c-0.154,0-0.302,0.002-0.45,0.008v2.934c0.148-0.007,0.296-0.015,0.452-0.015
	c7.439,0,13.467,6.032,13.467,13.473c0,7.437-6.027,13.468-13.467,13.468c-0.156,0-0.304-0.006-0.452-0.013v2.935
	c0.148,0.003,0.296,0.012,0.45,0.012c9.06,0,16.403-7.348,16.403-16.399C345.839,155.537,338.495,148.196,329.436,148.196z"/>
<path fill="#001A45" d="M388.228,127.239l-0.263-7.765l-18.766-8.256l-3.062-11.63c0.082-0.041-12.539-6.22-12.455-6.258
	c-6.675,1.487-4.781-3.75-4.781-3.75l14.71,30.247L388.228,127.239z"/>
<path fill="#00102E" d="M387.085,119.088l-24.391-6.047l1.859-3.334l-4.054-3.939l-2.69,2.13v6.731c0,0,2.39,3.41,3.596,3.763
	c1.208,0.353,14.935,4.938,15.039,4.999c0.104,0.058,8.393,2.827,8.393,2.827L387.085,119.088z"/>
<path fill="#FFD59A" d="M387.742,124.072c-0.297,0.813-0.168,2.028-0.585,2.927c1.093,0.581,3.965,1.188,6.088,1.958
	c2.425,0.881,4.085-3.356,3.802-5.823c-0.285-2.49-1.608,0.009-1.938-2.122c-0.277-1.787-4.756-1.132-6.091-0.813
	C388.822,121.528,388.288,122.851,387.742,124.072z"/>
<polygon fill="#E6E6E6" points="389.954,119.558 387.597,127.536 384.837,126.701 387.192,118.723 "/>
<path fill="#030202" d="M374.291,182.143c0.189,0.485,0.357,0.757,0.496,0.769c1.689,0.139,1.381,3.36,1.95,3.679
	c2.806,1.563,13.604,6.598,14.556,4.028c0.952-2.568-9.106-8.394-9.106-8.394l-0.016-0.151
	C379.535,182.353,376.745,182.183,374.291,182.143z"/>
<path fill="#001A45" d="M338.778,137.028l0.101-0.289c8.669-9.378,3.54-6.518,7.729-8.141c-0.153,0.272,51.835,2.248,51.835,2.248
	l-15.738,50.121c-1.672,3.14-8.005,3.573-8.779,2.059c-0.644-4.608,8.75-38.384,8.75-38.384l-25.511,2.568L338.778,137.028z"/>
<path fill="#00102E" d="M338.778,137.028l0.101-0.289c8.669-9.378,7.869-6.276,12.06-7.901c-0.011,0.019,7.519,0.396,7.519,0.396
	l32.898,5.289c0,0-13.343,40.06-12.7,44.667c0.412,0.804,2.39,1.061,4.403,0.652l-0.354,1.124c-1.672,3.14-8.005,3.573-8.779,2.059
	c-0.644-4.608,8.75-38.384,8.75-38.384l-25.511,2.568L338.778,137.028z"/>
<path fill="#E3E3E3" d="M351.969,89.945l-9.198-2.323c1.889,8.235-1.382,18.146-3.194,26.482c-1.077,4.709-2.452,9.153-3.874,13.77
	c-1.063,3.716,0.948,5.089,0.948,5.089l9.016,7.09c1.121-0.337,1.147-5.289,6.78-10.214c0,0-0.785-2.843,5.913-12.274
	c0.824-1.16,0.22-1.858,0.977-3.077C362.337,94.651,360.872,96.601,351.969,89.945z"/>
<path fill="#FFC16B" d="M353.412,81.883l-4.002-0.867c0,0-4.681,4.53-5.678,5.437c-0.996,0.906,11.852,9.188,11.852,9.188
	s0.351-0.756,2.836-1.782c0,0-0.478-2.802-0.216-3.094C359.787,88.99,353.412,81.883,353.412,81.883z"/>
<path fill="#030202" d="M364.949,188.069c0.188,0.486,0.355,0.758,0.495,0.769c1.689,0.139,1.381,3.36,1.951,3.679
	c2.804,1.563,13.603,6.597,14.555,4.029c0.951-2.569-9.106-8.394-9.106-8.394L372.828,188
	C370.193,188.279,367.402,188.109,364.949,188.069z"/>
<path fill="#001A45" d="M347.822,153.138l25.51-2.567c0,0-9.393,33.773-8.749,38.38c0.775,1.518,7.107,1.082,8.78-2.056
	l15.737-50.12c0,0-51.989-1.979-51.834-2.251c-4.191,1.626,0.939-1.234-7.729,8.143l-0.102,0.291"/>
<path fill="#00102E" d="M377.033,144.657c-0.712,2.032-9.222,5.463-11.236,6.048c-0.732,0.291-1.645,0.024-2.531,0.077
	c-4.175,0.101-7.835,0.71-11.802,0.847c-2.297,0.154-17.44-3.413-14.858-16.083c0.442-2.17-4.237,7.243-7.071,7.084
	c0.638,1.117-0.811,8.585,7.776,11.017l10.512-0.509l25.777-2.485l-2.703,8.794C370.896,159.446,375.509,149.001,377.033,144.657z"
	/>
<path fill="#C9C9C9" d="M343.599,88.527l7.496,11.828l1.422-3.047c0,0-2.118,20.691-2.01,20.623
	c0.108-0.069,3.919-18.928,3.919-18.928l0.651-0.934l1.65,1.384l2.559-4.711l-0.804-1.421l-4.012,2.337c0,0-3.188,0.019-3.326-0.036
	C351.009,95.568,343.599,88.527,343.599,88.527z"/>
<path fill="#001A45" d="M348.674,111.407c2.847-8.723,0.609-16.263-6.743-26.006l-11.5,4.179c0,0-1.409,29.791-3.538,34.373
	c-3.298,7.094-5.916,7.496-5.916,7.496c-1.146,6.051,3.777,16.072,7.796,16.965C330.22,146.116,342.953,128.938,348.674,111.407z"/>
<path fill="#00245E" d="M341.936,85.325l-1.42,1.125c3.655,7.34-0.343,10.525-0.343,10.525l5.191,3.936l-4.675,1.385
	c0,0,5.066,11.306,2.321,22.468c0,0,4.269-9.144,5.668-13.433C351.525,102.608,349.289,95.068,341.936,85.325z"/>
<path fill="#00102E" d="M348.674,111.407c-2.097,6.43-5.139,12.81-8.221,18.428l0,0l-10.022-40.255c0,0,11.524,10.396,19.32,16.893
	C349.58,108.09,349.223,109.726,348.674,111.407z"/>
<path fill="#001A45" d="M358.884,93.254l-1.585,1.488c0.524,12.012-3.198,28.736-9.045,40.094
	c11.49-9.917,17.884-35.249,17.884-35.249L358.884,93.254z"/>
<path fill="#00102E" d="M359.698,115.937c0.822-1.17,1.643-5.22,1.643-5.22s-0.298-1.099-1.021-3.026
	c1.89-0.203,1.469-1.302,3.293-1.878c-1.124-0.28-1.904-3.227-2.477-4.168c-2.021,0.118-1.53,1.968-3.606,2.09
	c-0.076,8.637,0.57,13.701-5.524,22.854C354.009,125.016,357.145,119.293,359.698,115.937z"/>
<path fill="#00245E" d="M353.496,124.52c3.924-5.438,5.095-9.551,9.793-14.225c-1.75-0.463-2.903-2.777-3.582-4.455
	c2.037-0.101,2.236-0.637,4.185-1.235c-3.227-2.469-5.099-7.489-4.701-11.275l-1.892,1.413c0.483,11.077-2.017,21.29-5.531,32.292
	C352.087,126.038,353,125.357,353.496,124.52z"/>
<path fill="#FFD59A" d="M356.124,69.275c0,0,3.892-2.492,7.69-0.063c3.799,2.428,4.257,3.835,2.973,6.798
	c-1.284,2.962-2.787,4.786-1.176,5.72c1.61,0.934,2.882,0.8,2.882,0.8s-0.628,2.618-2.918,3.105
	c-1.38,0.294-3.034-0.015-3.034-0.015s-0.535,3.14,0.245,5.008c0.604,1.444-3.088,3.164-8.604-0.585
	c-4.107-2.794-4.543-5.712-4.221-6.556c0.471-1.233,0.69-1.468,1.17-2.322C351.61,80.31,356.124,69.275,356.124,69.275z"/>
<path fill="#382100" d="M356.087,70.811c0,0,0.107,6.723-1.779,8.036c-1.886,1.313-4.721,3.306-4.721,3.306
	s-1.377,1.136-1.896-5.591c-0.533-6.912-1.065-6.611,0.263-7.76c1.329-1.149,2.442-1.271,2.442-1.271s-0.506-2.809,1.1-3.834
	c1.604-1.025,7.661-0.946,12.564,0.997c4.903,1.942,8.538,5.203,7.354,7.78C370.439,74.593,363.963,76.769,356.087,70.811z"/>
<path fill="#261700" d="M371.172,69.827c-0.993,2.396-6.635-3.535-12.46-4.635c-2.476-0.468-4.844-0.125-6.33,1.24
	c-1.487,1.364,1.265,2.801,1.265,2.801s-2.063-0.914-2.9-0.994c-0.84-0.08-2.005,3.222-2.31,4.791
	c-0.265,1.362-1.233,6.204,1.533,8.854c0.837-0.587,2.874-2.017,4.338-3.037c1.887-1.313,1.779-8.036,1.779-8.036
	c7.876,5.958,14.353,3.783,15.327,1.662C371.797,71.64,371.677,70.735,371.172,69.827z"/>
<circle fill="#FFD59A" cx="351.643" cy="77.51" r="3.465"/>
<path fill="#FFC16B" d="M351.561,80.288c0,0-1.101-0.698-0.072-1.617c0.521-0.464,1.403-0.017,1.403-0.017s-0.227-1.713-1.312-1.594
	c-1.084,0.118-1.284,1.101-1.284,1.101s-0.045-1.719,1.558-1.594c1.602,0.126,1.202,2.365,1.202,2.365s-1.46-0.67-1.634,0.557
	C351.346,80.023,351.561,80.288,351.561,80.288z"/>
<path fill="#FFC16B" d="M362.444,85.594c0,0-1.188-0.715-0.555-1.5c0.367-0.455,0.805-0.752,0.805-0.752
	S359.971,84.514,362.444,85.594z"/>
<path fill="#C60022" d="M352.133,95.782l2.834,1.957c0,0-9.388,29.852,0.499,37.593c2.705,0.835,4.036,0.582,4.036,0.582
	l0.449-3.482c0,0-6.213-3.641-6.699-11.187c-0.679-10.533,2.744-23.554,2.744-23.554l2.31-1.656l-2.857-1.255L352.133,95.782z"/>
<polygon fill="#E3E3E3" points="344.362,85.527 355.99,94.748 358.425,92.756 359.381,94.099 356.874,98.811 355.888,95.054 
	350.856,97.536 342.947,86.999 "/>
<path fill="#FFFFFF" d="M355.99,94.748l-8.15-5.014c0.047,1.972,0.403,2.224,0.297,4.145l2.72,3.657l5.031-2.482l0.986,3.757
	l2.103-3.83c0.088-0.235-0.523-1.622-0.523-1.622L355.99,94.748z"/>
<path fill="#122B42" d="M323.431,196.021l85.583-131.734c3.14,2.015,9.015,7.067,11.971,10.246
	c9.497,10.217,17.807,22.031,16.879,43.019c-0.195,4.531-6.384,10.117-1.391,18.627c0,0,10.643,16.688,10.467,19.56
	c0,0,0.414,5.239-7.649,5.805c0,0-2.214,0.723-1.402,5.127l1.128,5.31c0,0,0.224,2.939-4.118,4.147c0,0-0.652,0.705,0.43,1.946
	c0,0,2.22,1.947-0.999,6.628c-1.155,1.681-2.93,3.853-1.516,8.026c0,0,1.924,8.072-1.17,10.178c0,0-3.412,4.516-18.177,3.465
	c-4.925-0.34-13.972-2.203-19.328,4.174c-0.176,0.321-2.858,5.358-1.154,10.046c0.738,2.032,0.964,4.166-1.534,4.826
	c-2.318,0.612-4.6-0.171-6.852-0.624c-4.228-0.852-8.365-2.004-12.438-3.366C335.963,207.846,323.431,196.021,323.431,196.021z"/>
<path opacity="0.3" fill="#404041" d="M409.014,64.286c0,0,35.333,32.171,8.135,76.278c0,0-11.515,18.284-36.87,26.999
	c-25.199,8.663-55.334,25.469-56.848,28.457L409.014,64.286z"/>
<path fill="#F1F2F2" d="M408.951,64.227c0,0,29.556,26.248,3.883,73.473c0,0-10.301,19.176-35.656,27.892
	c-25.199,8.662-52.301,27.383-53.813,30.371L408.951,64.227z"/>
<path fill="#122B42" d="M434.28,60.408h-3.397c-0.246-1.198-0.574-2.356-0.989-3.481l2.843-1.638
	c0.678-0.395,0.912-1.264,0.523-1.95l-2.85-4.932c-0.397-0.679-1.271-0.912-1.945-0.521l-2.954,1.704
	c-0.792-0.903-1.657-1.747-2.584-2.518l1.644-2.845c0.392-0.687,0.157-1.553-0.523-1.949l-4.93-2.849
	c-0.679-0.389-1.551-0.156-1.944,0.525l-1.702,2.949c-1.131-0.386-2.305-0.681-3.504-0.887v-3.289c0-0.784-0.634-1.426-1.423-1.426
	h-5.689c-0.794,0-1.432,0.642-1.432,1.426v3.402c-1.192,0.241-2.352,0.57-3.479,0.983l-1.633-2.842
	c-0.396-0.686-1.268-0.915-1.955-0.524l-4.931,2.853c-0.679,0.39-0.91,1.262-0.519,1.943l1.704,2.953
	c-0.903,0.794-1.75,1.656-2.516,2.582l-2.845-1.643c-0.688-0.391-1.556-0.154-1.948,0.525l-2.853,4.931
	c-0.393,0.68-0.16,1.552,0.522,1.944l2.948,1.702c-0.383,1.133-0.679,2.3-0.884,3.498h-3.285c-0.791,0-1.427,0.644-1.427,1.429
	v5.692c0,0.787,0.636,1.422,1.427,1.422h3.402c0.236,1.199,0.564,2.363,0.978,3.482l-2.844,1.642
	c-0.681,0.395-0.908,1.266-0.521,1.944l2.846,4.929c0.393,0.681,1.267,0.917,1.948,0.526l2.954-1.706
	c0.797,0.905,1.659,1.755,2.584,2.521l-1.644,2.847c-0.394,0.681-0.161,1.553,0.519,1.944l4.938,2.85
	c0.682,0.389,1.553,0.157,1.941-0.521l1.706-2.949c1.131,0.381,2.298,0.678,3.501,0.881v3.292c0,0.788,0.636,1.421,1.419,1.421
	l5.7,0.005c0.785,0,1.423-0.638,1.423-1.426v-3.399c1.189-0.244,2.351-0.568,3.476-0.981l1.646,2.836
	c0.394,0.688,1.257,0.917,1.941,0.523l4.938-2.85c0.676-0.387,0.908-1.262,0.517-1.948l-1.707-2.95
	c0.906-0.792,1.752-1.657,2.523-2.584l2.847,1.645c0.686,0.394,1.55,0.159,1.946-0.521l2.846-4.934
	c0.394-0.68,0.158-1.553-0.517-1.942l-2.952-1.706c0.383-1.129,0.679-2.3,0.886-3.496h3.289c0.784,0,1.42-0.639,1.421-1.429V61.83
	C435.704,61.042,435.063,60.408,434.28,60.408z M408.017,76.357c-6.276,0-11.365-5.09-11.365-11.362
	c0-6.278,5.089-11.364,11.365-11.364c6.273,0,11.36,5.086,11.36,11.364C419.377,71.267,414.29,76.357,408.017,76.357z"/>
<path fill="#1C4563" d="M408.013,47.005c-9.937,0-17.989,8.054-17.989,17.992c0,9.93,8.053,17.988,17.989,17.988
	c9.938,0,17.994-8.059,17.994-17.988C426.007,55.06,417.95,47.005,408.013,47.005z M408.017,79.768
	c-8.162,0-14.778-6.616-14.778-14.772c0-8.161,6.616-14.778,14.778-14.778c8.158,0,14.771,6.617,14.771,14.778
	C422.787,73.152,416.175,79.768,408.017,79.768z"/>
<path fill="#1C4563" d="M408.013,47.005c-0.168,0-0.329,0.004-0.493,0.009v3.219c0.164-0.009,0.325-0.016,0.497-0.016
	c8.158,0,14.771,6.617,14.771,14.778c0,8.156-6.612,14.772-14.771,14.772c-0.172,0-0.333-0.007-0.497-0.014v3.22
	c0.164,0.002,0.325,0.011,0.493,0.011c9.938,0,17.994-8.059,17.994-17.988C426.007,55.06,417.95,47.005,408.013,47.005z"/>
<path fill="#122B42" d="M380.223,38.158h-2.112c-0.153-0.745-0.356-1.465-0.614-2.164l1.766-1.019
	c0.423-0.245,0.568-0.786,0.325-1.213l-1.771-3.065c-0.248-0.422-0.79-0.567-1.21-0.324l-1.836,1.059
	c-0.492-0.562-1.03-1.085-1.606-1.565l1.021-1.769c0.244-0.427,0.098-0.966-0.325-1.212l-3.065-1.77
	c-0.42-0.242-0.963-0.098-1.208,0.326l-1.057,1.833c-0.705-0.24-1.435-0.423-2.181-0.551V24.68c0-0.487-0.394-0.887-0.885-0.887
	h-3.537c-0.493,0-0.889,0.4-0.889,0.887v2.115c-0.742,0.149-1.463,0.355-2.162,0.611l-1.016-1.767
	c-0.248-0.426-0.788-0.569-1.216-0.326l-3.065,1.773c-0.422,0.242-0.565,0.785-0.322,1.208l1.061,1.836
	c-0.563,0.494-1.089,1.029-1.564,1.605l-1.77-1.021c-0.426-0.243-0.966-0.096-1.211,0.327L348,34.106
	c-0.244,0.423-0.1,0.965,0.326,1.209l1.832,1.058c-0.238,0.704-0.422,1.43-0.55,2.174h-2.043c-0.491,0-0.886,0.401-0.886,0.888
	v3.539c0,0.49,0.395,0.885,0.886,0.885h2.115c0.148,0.745,0.352,1.469,0.608,2.165l-1.769,1.02
	c-0.423,0.246-0.563,0.788-0.323,1.209l1.77,3.065c0.244,0.422,0.787,0.569,1.212,0.327l1.836-1.06
	c0.495,0.563,1.031,1.091,1.605,1.567l-1.021,1.77c-0.245,0.423-0.101,0.965,0.323,1.208l3.069,1.771
	c0.424,0.242,0.964,0.098,1.206-0.324l1.062-1.833c0.702,0.237,1.428,0.422,2.176,0.548v2.047c0,0.49,0.396,0.883,0.882,0.883
	l3.544,0.003c0.489,0,0.886-0.396,0.886-0.886v-2.113c0.738-0.152,1.461-0.354,2.161-0.61l1.022,1.764
	c0.245,0.427,0.781,0.57,1.206,0.325l3.069-1.772c0.421-0.24,0.565-0.784,0.321-1.211l-1.06-1.833
	c0.563-0.493,1.088-1.029,1.568-1.606l1.77,1.022c0.426,0.244,0.962,0.099,1.209-0.325l1.771-3.067
	c0.242-0.423,0.097-0.966-0.323-1.208l-1.835-1.061c0.238-0.702,0.422-1.43,0.55-2.173h2.046c0.487,0,0.883-0.397,0.883-0.889
	v-3.541C381.107,38.551,380.71,38.158,380.223,38.158z M363.895,48.074c-3.902,0-7.065-3.165-7.065-7.064
	c0-3.902,3.163-7.064,7.065-7.064c3.9,0,7.063,3.162,7.063,7.064C370.957,44.909,367.795,48.074,363.895,48.074z"/>
<path fill="#1C4563" d="M363.892,29.826c-6.177,0-11.183,5.007-11.183,11.186c0,6.173,5.006,11.183,11.183,11.183
	c6.179,0,11.187-5.01,11.187-11.183C375.078,34.833,370.07,29.826,363.892,29.826z M363.895,50.194
	c-5.075,0-9.187-4.113-9.187-9.185c0-5.074,4.111-9.187,9.187-9.187c5.072,0,9.184,4.113,9.184,9.187
	C373.078,46.081,368.967,50.194,363.895,50.194z"/>
<path fill="#1C4563" d="M363.892,29.826c-0.104,0-0.204,0.002-0.306,0.005v2.001c0.102-0.005,0.201-0.01,0.309-0.01
	c5.072,0,9.184,4.113,9.184,9.187c0,5.071-4.111,9.185-9.184,9.185c-0.107,0-0.207-0.004-0.309-0.008v2.001
	c0.102,0.001,0.201,0.007,0.306,0.007c6.179,0,11.187-5.01,11.187-11.183C375.078,34.833,370.07,29.826,363.892,29.826z"/>
<path fill="#001A45" d="M374.719,127.239l-0.263-7.765l-22.739-10.148L341.931,85.4c0.081-0.04-3.607,1.993-3.522,1.954
	c-6.678,1.486-7.978,2.225-7.978,2.225l14.71,30.247L374.719,127.239z"/>
<path fill="#FFD59A" d="M374.233,124.072c-0.297,0.813-0.168,2.028-0.585,2.927c1.092,0.581,3.966,1.188,6.088,1.958
	c2.426,0.881,4.084-3.356,3.802-5.823c-0.285-2.49-1.608,0.009-1.938-2.122c-0.276-1.787-4.755-1.132-6.09-0.813
	C375.314,121.528,374.779,122.851,374.233,124.072z"/>
<polygon fill="#E6E6E6" points="376.444,119.558 374.087,127.536 371.327,126.701 373.684,118.723 "/>
<polygon fill="#F9DA55" points="266.564,124.912 252.953,111.302 239.344,124.912 245.981,124.912 245.981,142.767 259.941,142.767 
	259.942,124.912 "/>
<polygon fill="#001A45" points="303.942,153.786 288.245,138.088 272.548,153.786 280.204,153.786 280.204,174.378 296.306,174.378 
	296.306,153.784 "/>
<polygon opacity="0.5" fill="#001A45" points="297.016,107.041 288.245,98.271 279.475,107.041 283.753,107.041 283.753,118.546 
	292.748,118.546 292.748,107.041 "/>
<polygon fill="#7CD1F2" points="464.994,84.388 476.949,72.435 488.901,84.388 483.071,84.388 483.071,100.069 470.811,100.069 
	470.811,84.388 "/>
<polygon fill="#001A45" points="439.604,108.125 453.39,94.339 467.175,108.126 460.451,108.126 460.451,126.21 446.312,126.21 
	446.312,108.125 "/>
<polygon fill="#C60022" points="445.688,60.961 453.39,53.258 461.093,60.961 457.336,60.961 457.336,71.066 449.435,71.066 
	449.434,60.961 "/>
<path fill="#F9DA55" d="M245.592,49.174c8.879,0,17.759,0,26.64,0c8.93,0,17.86,0,26.79,0c0.045,0,0.089,0,0.135,0
	c3.671,0,6.737-2.22,6.737-4.882c0-2.661-3.066-4.881-6.737-4.881c-8.932,0-17.86,0-26.792,0c-8.88,0-17.761,0-26.64,0
	c-0.045,0-0.09,0-0.133,0c-3.674,0-6.737,2.221-6.737,4.881C238.854,46.954,241.918,49.174,245.592,49.174L245.592,49.174z"/>
<path fill="#5199CE" d="M308.634,28.675c5.81,0,11.621,0,17.429,0c2.662,0,4.884-2.221,4.884-4.882c0-2.66-2.222-4.881-4.884-4.881
	c-5.808,0-11.619,0-17.429,0c-2.661,0-4.881,2.221-4.881,4.881C303.753,26.454,305.973,28.675,308.634,28.675L308.634,28.675z"/>
<path fill="#9FB603" d="M462.517,42.184c5.811,0,11.62,0,17.431,0c2.661,0,4.882-2.22,4.882-4.882c0-2.661-2.221-4.882-4.882-4.882
	c-5.811,0-11.62,0-17.431,0c-2.661,0-4.882,2.221-4.882,4.882C457.635,39.964,459.855,42.184,462.517,42.184L462.517,42.184z"/>
<path fill="#7CD1F2" d="M483.17,185.878c5.81,0,11.62,0,17.43,0c2.661,0,4.882-2.22,4.882-4.881s-2.221-4.882-4.882-4.882
	c-5.81,0-11.62,0-17.43,0c-2.662,0-4.881,2.221-4.881,4.882S480.508,185.878,483.17,185.878L483.17,185.878z"/>
<path fill="#001A45" d="M297.178,225.641c5.811,0,11.62,0,17.431,0c2.661,0,4.881-2.22,4.881-4.882c0-2.66-2.22-4.881-4.881-4.881
	c-5.811,0-11.62,0-17.431,0c-2.661,0-4.881,2.221-4.881,4.881C292.297,223.421,294.517,225.641,297.178,225.641L297.178,225.641z"/>
<path fill="#9FB603" d="M261.561,73.02c5.811,0,11.619,0,17.43,0c2.661,0,4.881-2.221,4.881-4.882c0-2.661-2.22-4.881-4.881-4.881
	c-5.811,0-11.619,0-17.43,0c-2.661,0-4.881,2.221-4.881,4.881C256.68,70.799,258.899,73.02,261.561,73.02L261.561,73.02z"/>
<path fill="#EA4256" d="M451.824,202.458c6.436,0,12.87,0,19.304,0c6.472,0,12.942,0,19.413,0c0.034,0,0.065,0,0.098,0
	c2.661,0,4.882-2.222,4.882-4.883c0-2.659-2.221-4.881-4.882-4.881c-6.471,0-12.942,0-19.414,0c-6.435,0-12.869,0-19.303,0
	c-0.033,0-0.064,0-0.098,0c-2.66,0-4.881,2.222-4.881,4.881C446.943,200.236,449.164,202.458,451.824,202.458L451.824,202.458z"/>
</svg>
