<?xml version="1.0" encoding="utf-8"?>
<!-- Generator: Adobe Illustrator 15.1.0, SVG Export Plug-In  -->
<!DOCTYPE svg PUBLIC "-//W3C//DTD SVG 1.1//EN" "http://www.w3.org/Graphics/SVG/1.1/DTD/svg11.dtd" [
	<!ENTITY ns_flows "http://ns.adobe.com/Flows/1.0/">
]>
<svg version="1.1"
	 xmlns="http://www.w3.org/2000/svg" xmlns:xlink="http://www.w3.org/1999/xlink" xmlns:a="http://ns.adobe.com/AdobeSVGViewerExtensions/3.0/"
	 x="0px" y="0px" width="300px" height="300px" viewBox="-27.848 -12.332 300 300" enable-background="new -27.848 -12.332 300 300"
	 xml:space="preserve">
<defs>
</defs>
<path fill="#122B42" d="M106.012,73.724h-6.677c-0.484-2.375-1.126-4.668-1.941-6.896l5.58-3.243
	c1.336-0.781,1.797-2.504,1.028-3.865l-5.596-9.762c-0.783-1.343-2.497-1.803-3.824-1.031L88.78,52.3
	c-1.556-1.786-3.256-3.458-5.077-4.984l3.228-5.633c0.772-1.361,0.31-3.077-1.027-3.861l-9.688-5.635
	c-1.328-0.772-3.044-0.313-3.819,1.036l-3.339,5.837c-2.229-0.765-4.534-1.35-6.892-1.756v-6.512c0-1.551-1.244-2.825-2.796-2.825
	H48.191c-1.56,0-2.809,1.274-2.809,2.825v6.736c-2.346,0.473-4.624,1.13-6.833,1.946l-3.209-5.628
	c-0.784-1.358-2.491-1.813-3.843-1.04l-9.688,5.648c-1.333,0.771-1.787,2.502-1.019,3.852l3.352,5.848
	c-1.778,1.575-3.441,3.278-4.944,5.108l-5.593-3.253c-1.346-0.775-3.052-0.302-3.827,1.043l-5.604,9.76
	c-0.772,1.351-0.315,3.073,1.031,3.851l5.79,3.371c-0.753,2.241-1.333,4.556-1.737,6.926H2.799C1.247,74.96,0,76.238,0,77.79v11.271
	c0,1.56,1.247,2.817,2.799,2.817h6.685c0.469,2.371,1.111,4.681,1.923,6.896l-5.59,3.248c-1.336,0.783-1.781,2.509-1.021,3.852
	l5.592,9.766c0.772,1.341,2.488,1.809,3.831,1.036l5.802-3.376c1.564,1.789,3.259,3.478,5.074,4.99l-3.228,5.642
	c-0.775,1.346-0.318,3.071,1.021,3.846l9.7,5.643c1.34,0.771,3.046,0.314,3.813-1.031l3.354-5.84
	c2.219,0.754,4.512,1.347,6.876,1.745v6.518c0,1.561,1.25,2.815,2.787,2.815l11.201,0.009c1.546,0,2.798-1.264,2.798-2.824v-6.731
	c2.334-0.484,4.618-1.126,6.831-1.941l3.232,5.617c0.775,1.361,2.469,1.814,3.812,1.034l9.7-5.643
	c1.331-0.766,1.787-2.5,1.016-3.857l-3.349-5.842c1.778-1.568,3.438-3.278,4.957-5.112l5.593,3.257
	c1.345,0.778,3.04,0.314,3.821-1.037l5.598-9.765c0.766-1.353,0.306-3.077-1.021-3.85l-5.799-3.376
	c0.753-2.238,1.333-4.555,1.737-6.923h6.467c1.54,0,2.79-1.263,2.79-2.831V76.535C108.808,74.973,107.551,73.724,106.012,73.724z
	 M54.407,105.307c-12.333,0-22.33-10.084-22.33-22.504c0-12.429,9.997-22.499,22.33-22.499c12.327,0,22.32,10.07,22.32,22.499
	C76.727,95.223,66.734,105.307,54.407,105.307z"/>
<path fill="#1C4563" d="M54.397,47.183c-19.521,0-35.342,15.947-35.342,35.631c0,19.656,15.821,35.615,35.342,35.615
	c19.527,0,35.355-15.959,35.355-35.615C89.752,63.13,73.925,47.183,54.397,47.183z M54.407,112.056
	c-16.04,0-29.034-13.102-29.034-29.253c0-16.161,12.994-29.262,29.034-29.262c16.031,0,29.025,13.101,29.025,29.262
	C83.432,98.954,70.438,112.056,54.407,112.056z"/>
<path fill="#1C4563" d="M54.397,47.183c-0.33,0-0.646,0.005-0.966,0.015v6.374c0.321-0.013,0.636-0.03,0.976-0.03
	c16.031,0,29.025,13.101,29.025,29.262c0,16.151-12.994,29.253-29.025,29.253c-0.339,0-0.655-0.013-0.976-0.024v6.377
	c0.321,0,0.636,0.021,0.966,0.021c19.527,0,35.355-15.959,35.355-35.615C89.752,63.13,73.925,47.183,54.397,47.183z"/>
<path fill="#111449" d="M85.456,195.883c-18.736,0-33.979-15.243-33.979-33.979v-40.992h7.076v40.992
	c0,14.834,12.069,26.902,26.903,26.902c14.833,0,26.902-11.987,26.902-26.722V67.879c0-18.637,15.242-33.799,33.979-33.799
	c18.736,0,33.978,15.244,33.978,33.979v37.521h-7.076V68.059c0-14.834-12.068-26.902-26.902-26.902
	c-14.835,0-26.903,11.987-26.903,26.723v94.205C119.434,180.721,104.191,195.883,85.456,195.883z"/>
<path fill="#27467A" d="M176.775,97.528l32.577,86.796l14.152-9.435v-36.134C223.504,122.284,213.98,97.528,176.775,97.528z"/>
<path fill="#2F5E88" d="M209.353,138.756v45.568h-42.012l9.435-86.796C202.716,97.528,209.353,122.284,209.353,138.756z"/>
<path fill="#367596" d="M130.046,138.756v36.134l14.152,9.435h32.577V97.528C139.57,97.528,130.046,122.284,130.046,138.756z"/>
<path fill="#111449" d="M176.776,121.007c-5.032,0-9.111,4.078-9.111,9.111v16.791c0,5.033,4.079,9.111,9.111,9.111
	c5.033,0,9.112-4.079,9.112-9.111v-16.791C185.888,125.085,181.809,121.007,176.776,121.007z"/>
<path fill="#E89330" d="M55.016,37.618L38.875,83.981l16.141,46.364c25.605,0,46.363-20.759,46.363-46.364
	S80.621,37.618,55.016,37.618z"/>
<path fill="#FFBE35" d="M8.652,83.981c0,25.606,20.758,46.364,46.364,46.364V37.618C29.409,37.618,8.652,58.376,8.652,83.981z"/>
<path fill="#FFDB8A" d="M55.016,51.771v64.424c17.804,0,32.211-14.408,32.211-32.213C87.227,66.179,72.819,51.771,55.016,51.771z"/>
<path fill="#FFEAB5" d="M55.016,51.771c-17.806,0-32.212,14.408-32.212,32.211c0,17.806,14.408,32.213,32.212,32.213
	c12.189,0,22.053-14.408,22.053-32.213C77.068,66.179,67.204,51.771,55.016,51.771z"/>
<path fill="#111449" d="M209.353,174.891l-32.578,77.363c37.205,0,46.729-24.757,46.729-41.229v-36.134H209.353z"/>
<path fill="#27467A" d="M130.046,174.891v36.134c0,16.473,9.524,41.229,46.729,41.229c25.94,0,32.577-24.757,32.577-41.229v-36.134
	H130.046z"/>
<circle fill="#EA4256" cx="50.818" cy="197.667" r="6.333"/>
<circle fill="#EA4256" cx="179.485" cy="31.667" r="6.333"/>
<circle fill="#4D63A0" cx="131.152" cy="3.333" r="3.333"/>
<circle fill="#9FB603" cx="236.152" cy="232.167" r="3.333"/>
<circle fill="#27467A" cx="228.652" cy="241.167" r="3.333"/>
<circle fill="#E89330" cx="191.818" cy="46.667" r="2.083"/>
<circle fill="#4D63A0" cx="189.152" cy="18" r="2.083"/>
<circle fill="#9FB603" cx="40.152" cy="184.334" r="5.333"/>
<path fill="#E89330" d="M42.799,65.895H68.04v0.063c-1.487,2.602-2.333,3.995-2.54,4.181H58.78c0.929,1.239,1.559,2.736,1.889,4.491
	h7.185c0.083,0.021,0.124,0.062,0.124,0.124c-1.61,2.726-2.437,4.099-2.478,4.119h-4.646c-0.104,1.383-0.692,3.076-1.765,5.079
	c-1.466,2.003-2.849,3.304-4.15,3.902c-2.437,1.321-4.77,1.981-7,1.981v0.063c0,0.186,0.547,1.002,1.642,2.446l12.45,17.065v0.805
	c0,0.083-0.042,0.124-0.124,0.124h-5.482c-9.87-13.028-14.804-19.573-14.804-19.636v-3.964l0.062-0.155
	c0.867,0.146,1.889,0.217,3.066,0.217c5.513,0,8.951-2.033,10.313-6.101c0.207-0.599,0.31-1.208,0.31-1.827h-14.99
	c-0.083,0-0.124-0.052-0.124-0.155c1.651-2.726,2.498-4.088,2.54-4.088h11.924v-0.063c-0.702-1.568-2.024-2.787-3.964-3.654
	c-1.404-0.516-2.664-0.774-3.778-0.774h-6.659v-0.154C41.932,67.258,42.757,65.895,42.799,65.895z"/>
</svg>
