<?xml version="1.0" encoding="utf-8"?>
<!-- Generator: Adobe Illustrator 15.1.0, SVG Export Plug-In  -->
<!DOCTYPE svg PUBLIC "-//W3C//DTD SVG 1.1//EN" "http://www.w3.org/Graphics/SVG/1.1/DTD/svg11.dtd" [
	<!ENTITY ns_flows "http://ns.adobe.com/Flows/1.0/">
]>
<svg version="1.1"
	 xmlns="http://www.w3.org/2000/svg" xmlns:xlink="http://www.w3.org/1999/xlink" xmlns:a="http://ns.adobe.com/AdobeSVGViewerExtensions/3.0/"
	 x="0px" y="0px" width="300px" height="300px" viewBox="-13.067 -33.239 300 300" enable-background="new -13.067 -33.239 300 300"
	 xml:space="preserve">
<defs>
</defs>
<path fill="#C60A40" d="M226.147,165.576v35.24h25.697v-35.24H226.147z M248.584,190.501h-19.176v-2.073h19.176V190.501z
	 M248.584,185.865h-19.176v-2.073h19.176V185.865z M248.584,181.228h-19.176v-2.073h19.176V181.228z M248.584,176.591h-19.176
	v-2.073h19.176V176.591z M248.584,171.955h-19.176v-2.074h19.176V171.955z"/>
<path fill="#3D5570" d="M192.24,3.046v28.373h20.689V3.046H192.24z M210.305,23.115h-15.438v-1.669h15.438V23.115z M210.305,19.381
	h-15.438v-1.669h15.438V19.381z M210.305,15.648h-15.438v-1.669h15.438V15.648z M210.305,11.915h-15.438v-1.669h15.438V11.915z
	 M210.305,8.182h-15.438V6.513h15.438V8.182z"/>
<polygon id="XMLID_431_" fill="#4C698B" points="204.332,60.48 203.268,59.346 203.844,58.817 204.89,59.967 "/>
<path fill="#4C698B" d="M109.989,222.855c-0.522-0.008-1.044-0.019-1.564-0.034l0.045-1.555c0.513,0.015,1.026,0.026,1.541,0.034
	L109.989,222.855z M113.12,222.85l-0.025-1.555c0.513-0.008,1.028-0.021,1.542-0.037l0.05,1.554
	C114.164,222.83,113.642,222.842,113.12,222.85z M105.297,222.676c-0.522-0.033-1.043-0.07-1.563-0.111l0.123-1.55
	c0.512,0.041,1.023,0.076,1.537,0.109L105.297,222.676z M117.814,222.664l-0.099-1.552c0.513-0.032,1.026-0.067,1.54-0.106
	l0.119,1.55C118.854,222.594,118.334,222.631,117.814,222.664z M122.488,222.269l-0.162-1.546c0.51-0.054,1.021-0.111,1.531-0.174
	l0.187,1.544C123.525,222.156,123.006,222.215,122.488,222.269z M100.618,222.265c-0.52-0.059-1.039-0.122-1.555-0.189l0.2-1.541
	c0.509,0.065,1.018,0.128,1.529,0.187L100.618,222.265z M127.143,221.676l-0.228-1.538c0.508-0.075,1.016-0.154,1.524-0.238
	l0.25,1.535C128.174,221.519,127.658,221.599,127.143,221.676z M95.965,221.616c-0.517-0.086-1.032-0.177-1.545-0.272l0.285-1.528
	c0.503,0.094,1.008,0.183,1.515,0.267L95.965,221.616z M131.768,220.891l-0.29-1.527c0.504-0.096,1.008-0.195,1.513-0.299
	l0.311,1.523C132.791,220.693,132.279,220.793,131.768,220.891z M91.35,220.717c-0.509-0.114-1.018-0.232-1.525-0.355l0.364-1.511
	c0.5,0.12,0.999,0.237,1.501,0.35L91.35,220.717z M136.357,219.923l-0.351-1.516c0.5-0.116,1-0.234,1.5-0.357l0.371,1.509
	C137.371,219.684,136.865,219.805,136.357,219.923z M86.784,219.562c-0.505-0.144-1.007-0.291-1.509-0.443l0.453-1.488
	c0.492,0.149,0.985,0.296,1.481,0.436L86.784,219.562z M140.905,218.778l-0.409-1.5c0.494-0.136,0.99-0.273,1.486-0.415l0.428,1.494
	C141.908,218.501,141.406,218.641,140.905,218.778z M82.289,218.144c-0.494-0.172-0.988-0.349-1.478-0.531l0.541-1.457
	c0.481,0.178,0.964,0.352,1.449,0.521L82.289,218.144z M145.403,217.461l-0.463-1.483c0.49-0.153,0.98-0.31,1.47-0.47l0.482,1.478
	C146.397,217.148,145.9,217.306,145.403,217.461z M77.89,216.462c-0.483-0.202-0.963-0.408-1.442-0.62l0.63-1.422
	c0.468,0.208,0.939,0.409,1.412,0.607L77.89,216.462z M149.853,215.984l-0.517-1.467c0.484-0.17,0.969-0.345,1.452-0.521
	l0.534,1.459C150.833,215.634,150.343,215.811,149.853,215.984z M73.606,214.515c-0.469-0.231-0.934-0.466-1.398-0.707l0.716-1.38
	c0.454,0.236,0.911,0.467,1.37,0.692L73.606,214.515z M154.244,214.346l-0.568-1.446c0.479-0.188,0.956-0.379,1.435-0.573
	l0.584,1.44C155.212,213.963,154.729,214.157,154.244,214.346z M158.574,212.559l-0.616-1.427c0.471-0.203,0.941-0.411,1.412-0.622
	l0.635,1.42C159.528,212.143,159.052,212.353,158.574,212.559z M69.46,212.307c-0.452-0.26-0.901-0.524-1.349-0.794l0.803-1.331
	c0.437,0.263,0.877,0.522,1.32,0.776L69.46,212.307z M162.844,210.623l-0.667-1.404l1.394-0.67l0.68,1.398L162.844,210.623z
	 M65.467,209.839c-0.436-0.289-0.868-0.583-1.298-0.882l0.887-1.276c0.42,0.292,0.844,0.58,1.271,0.863L65.467,209.839z
	 M167.042,208.545l-0.712-1.382c0.458-0.235,0.913-0.475,1.368-0.716l0.729,1.374C167.966,208.066,167.505,208.306,167.042,208.545z
	 M61.633,207.111c-0.416-0.315-0.829-0.638-1.239-0.964l0.969-1.216c0.401,0.318,0.805,0.633,1.211,0.942L61.633,207.111z
	 M171.171,206.329l-0.759-1.356l1.346-0.761l0.771,1.35L171.171,206.329z M57.982,204.139c-0.394-0.343-0.784-0.69-1.171-1.043
	l1.044-1.15c0.38,0.345,0.763,0.685,1.148,1.021L57.982,204.139z M175.224,203.98l-0.801-1.333c0.44-0.265,0.881-0.532,1.319-0.803
	l0.815,1.323C176.114,203.441,175.669,203.712,175.224,203.98z M179.199,201.501l-0.844-1.306c0.432-0.279,0.863-0.561,1.292-0.846
	l0.859,1.297C180.071,200.934,179.636,201.219,179.199,201.501z M54.535,200.936c-0.371-0.367-0.738-0.739-1.103-1.116l1.118-1.081
	c0.356,0.369,0.716,0.733,1.079,1.094L54.535,200.936z M183.092,198.896l-0.885-1.278c0.423-0.293,0.845-0.587,1.266-0.886
	l0.898,1.268C183.946,198.301,183.52,198.6,183.092,198.896z M51.299,197.519c-0.345-0.39-0.688-0.784-1.029-1.184l1.183-1.008
	c0.334,0.392,0.669,0.777,1.009,1.159L51.299,197.519z M186.9,196.168l-0.925-1.25c0.414-0.306,0.826-0.614,1.236-0.925l0.938,1.239
	C187.735,195.547,187.318,195.86,186.9,196.168z M48.287,193.906c-0.322-0.41-0.64-0.825-0.954-1.245l1.243-0.933
	c0.308,0.411,0.62,0.817,0.935,1.22L48.287,193.906z M190.619,193.324l-0.963-1.222c0.404-0.318,0.807-0.64,1.207-0.964l0.978,1.21
	C191.435,192.676,191.027,193.001,190.619,193.324z M194.25,190.362l-1.003-1.188l1.178-1.003l1.013,1.18L194.25,190.362z
	 M45.503,190.117c-0.295-0.429-0.588-0.861-0.877-1.3l1.296-0.857c0.284,0.429,0.57,0.854,0.861,1.273L45.503,190.117z
	 M197.783,187.289l-1.038-1.156c0.383-0.345,0.765-0.69,1.145-1.039l1.051,1.146C198.556,186.591,198.171,186.941,197.783,187.289z
	 M42.948,186.169c-0.27-0.445-0.536-0.894-0.8-1.347l1.344-0.784c0.259,0.446,0.521,0.887,0.786,1.324L42.948,186.169z
	 M201.221,184.107l-1.073-1.124c0.371-0.355,0.742-0.713,1.111-1.073l1.085,1.112C201.971,183.386,201.597,183.749,201.221,184.107z
	 M40.624,182.083c-0.244-0.459-0.485-0.921-0.724-1.388l1.385-0.708c0.234,0.46,0.471,0.914,0.712,1.365L40.624,182.083z
	 M204.558,180.82l-1.108-1.09c0.359-0.366,0.72-0.735,1.077-1.106l1.119,1.078C205.284,180.077,204.922,180.451,204.558,180.82z
	 M38.526,177.88c-0.219-0.471-0.437-0.944-0.65-1.424l1.42-0.633c0.21,0.47,0.423,0.937,0.639,1.399L38.526,177.88z
	 M207.787,177.431l-1.14-1.057c0.349-0.377,0.696-0.757,1.042-1.139l1.152,1.043C208.492,176.666,208.141,177.049,207.787,177.431z
	 M210.913,173.942l-1.173-1.02c0.338-0.389,0.673-0.779,1.007-1.172l1.185,1.007C211.595,173.154,211.255,173.549,210.913,173.942z
	 M36.649,173.577c-0.197-0.48-0.39-0.967-0.579-1.455l1.45-0.562c0.186,0.48,0.375,0.957,0.568,1.431L36.649,173.577z
	 M213.93,170.358l-1.206-0.981c0.325-0.399,0.648-0.8,0.971-1.204l1.215,0.971C214.584,169.55,214.258,169.956,213.93,170.358z
	 M34.985,169.187c-0.172-0.49-0.342-0.983-0.508-1.479l1.474-0.493c0.164,0.488,0.331,0.975,0.5,1.456L34.985,169.187z
	 M216.83,166.682l-1.234-0.944c0.313-0.408,0.623-0.818,0.932-1.231l1.245,0.931C217.46,165.854,217.146,166.269,216.83,166.682z
	 M33.528,164.728c-0.15-0.497-0.297-0.997-0.441-1.5l1.494-0.43c0.143,0.497,0.289,0.99,0.436,1.479L33.528,164.728z
	 M219.618,162.917l-1.265-0.903l0.894-1.262l1.272,0.893L219.618,162.917z M32.268,160.209c-0.129-0.502-0.255-1.009-0.378-1.517
	l1.511-0.366c0.121,0.503,0.246,1.001,0.374,1.496L32.268,160.209z M222.283,159.068l-1.29-0.866
	c0.286-0.426,0.569-0.855,0.853-1.287l1.301,0.852C222.861,158.202,222.572,158.636,222.283,159.068z M31.193,155.646
	c-0.108-0.507-0.215-1.018-0.318-1.529l1.524-0.307c0.102,0.506,0.207,1.01,0.314,1.511L31.193,155.646z M224.829,155.136
	l-1.317-0.824c0.272-0.436,0.544-0.874,0.813-1.313l1.326,0.811C225.379,154.253,225.105,154.697,224.829,155.136z M227.253,151.127
	l-1.344-0.782l0.771-1.34l1.351,0.771L227.253,151.127z M30.296,151.046c-0.088-0.51-0.176-1.022-0.26-1.539l1.534-0.252
	c0.084,0.511,0.17,1.018,0.259,1.522L30.296,151.046z M229.548,147.045l-1.368-0.739l0.729-1.362l1.374,0.726L229.548,147.045z
	 M29.568,146.418c-0.072-0.513-0.141-1.029-0.208-1.548l1.543-0.197c0.065,0.513,0.134,1.022,0.205,1.529L29.568,146.418z
	 M231.714,142.894l-1.391-0.697l0.687-1.385l1.396,0.684L231.714,142.894z M28.998,141.771c-0.056-0.516-0.107-1.033-0.157-1.554
	l1.547-0.147c0.049,0.515,0.101,1.026,0.155,1.536L28.998,141.771z M233.749,138.676l-1.411-0.653l0.644-1.406l1.416,0.642
	L233.749,138.676z M28.577,137.107l-0.109-1.557l1.552-0.103l0.108,1.542L28.577,137.107z M235.65,134.4l-1.429-0.612
	c0.202-0.472,0.401-0.946,0.598-1.423l1.437,0.594C236.058,133.441,235.855,133.921,235.65,134.4z M28.298,132.435
	c-0.023-0.518-0.045-1.037-0.063-1.56l1.553-0.055c0.018,0.517,0.04,1.031,0.063,1.543L28.298,132.435z M237.421,130.062
	l-1.448-0.564l0.554-1.443l1.454,0.551L237.421,130.062z M28.151,127.756l-0.021-1.56l1.555-0.014l0.021,1.546L28.151,127.756z
	 M239.059,125.574l-1.498-0.425l0.507-1.468l1.47,0.507L239.059,125.574z M29.682,123.086l-1.555-0.006l0.011-1.558l1.555,0.017
	L29.682,123.086z M240.542,121.245l-1.474-0.497l0.495-1.471l1.475,0.495L240.542,121.245z M29.74,118.445l-1.555-0.032l0.037-1.558
	l1.555,0.044L29.74,118.445z M242.019,116.819l-1.477-0.487l0.482-1.473l1.479,0.481L242.019,116.819z M29.88,113.805l-1.553-0.061
	l0.067-1.558l1.553,0.074L29.88,113.805z M243.46,112.381l-1.482-0.471l0.471-1.479l1.481,0.468L243.46,112.381z M30.113,109.172
	l-1.552-0.094c0.032-0.525,0.065-1.045,0.103-1.557l1.55,0.111C30.178,108.14,30.145,108.653,30.113,109.172z M244.858,107.93
	l-1.485-0.46l0.454-1.481l1.488,0.452L244.858,107.93z M30.453,104.55l-1.549-0.133l0.141-1.553l1.547,0.149L30.453,104.55z
	 M246.212,103.46l-1.491-0.441l0.438-1.487l1.492,0.437L246.212,103.46z M30.913,99.939l-1.544-0.176l0.184-1.547l1.542,0.188
	L30.913,99.939z M247.514,98.977l-1.496-0.422l0.42-1.493l1.497,0.419L247.514,98.977z M31.506,95.348l-1.54-0.222
	c0.075-0.52,0.152-1.035,0.231-1.543l1.537,0.24C31.656,94.325,31.58,94.833,31.506,95.348z M248.758,94.479l-1.502-0.405
	l0.399-1.496l1.504,0.396L248.758,94.479z M32.24,90.777l-1.532-0.271c0.091-0.515,0.185-1.027,0.28-1.535l1.527,0.287
	C32.422,89.76,32.33,90.266,32.24,90.777z M249.938,89.958l-1.508-0.38l0.375-1.504l1.51,0.374L249.938,89.958z M33.112,86.23
	l-1.522-0.316l0.322-1.524l1.52,0.328L33.112,86.23z M251.042,85.417l-1.514-0.352l0.346-1.509l1.518,0.343L251.042,85.417z
	 M34.111,81.705l-1.514-0.354l0.36-1.516l1.511,0.366L34.111,81.705z M252.059,80.854l-1.521-0.322l0.314-1.514l1.524,0.31
	L252.059,80.854z M35.208,77.199l-1.508-0.38l0.383-1.507l1.506,0.387L35.208,77.199z M252.972,76.267l-1.528-0.284l0.275-1.521
	l1.53,0.271L252.972,76.267z M36.369,72.7l-1.503-0.395l0.394-1.501l1.503,0.395L36.369,72.7z M253.759,71.652l-1.536-0.238
	c0.079-0.517,0.155-1.026,0.227-1.528l1.54,0.22C253.916,70.615,253.84,71.129,253.759,71.652z M37.554,68.2l-1.503-0.395
	l0.394-1.501l1.504,0.395L37.554,68.2z M254.392,67.007l-1.544-0.179c0.06-0.519,0.116-1.03,0.167-1.533l1.547,0.158
	C254.509,65.963,254.453,66.481,254.392,67.007z M38.729,63.692l-1.506-0.387l0.383-1.501l1.508,0.382L38.729,63.692z
	 M254.826,62.332l-1.552-0.105c0.036-0.521,0.065-1.034,0.089-1.535l1.554,0.074C254.893,61.278,254.862,61.799,254.826,62.332z
	 M39.868,59.17L38.359,58.8l0.367-1.504l1.511,0.366L39.868,59.17z M207.198,57.928l-1.016-1.177
	c0.367-0.317,0.766-0.657,1.191-1.016l1.002,1.188C207.954,57.279,207.562,57.615,207.198,57.928z M253.442,57.625
	c0.001-0.596-0.005-1.069-0.018-1.533l1.555-0.039c0.013,0.477,0.019,0.964,0.018,1.462L253.442,57.625z M210.761,54.952
	l-0.978-1.208c0.394-0.318,0.801-0.645,1.222-0.978l0.964,1.221C211.553,54.314,211.149,54.637,210.761,54.952z M40.955,54.634
	l-1.514-0.352l0.348-1.509l1.515,0.346L40.955,54.634z M253.251,53.044c-0.049-0.519-0.105-1.022-0.171-1.511l1.541-0.207
	c0.068,0.508,0.127,1.033,0.178,1.573L253.251,53.044z M214.413,52.09l-0.938-1.239c0.409-0.31,0.826-0.623,1.251-0.938l0.927,1.25
	C215.231,51.473,214.818,51.783,214.413,52.09z M218.157,49.354l-0.895-1.271c0.423-0.298,0.853-0.596,1.286-0.893l0.878,1.284
	C218.998,48.767,218.575,49.06,218.157,49.354z M252.533,48.559c-0.12-0.503-0.254-0.984-0.397-1.443l1.482-0.466
	c0.155,0.493,0.298,1.008,0.427,1.548L252.533,48.559z M221.999,46.771l-0.839-1.309c0.438-0.281,0.881-0.559,1.326-0.834
	l0.816,1.322C222.865,46.22,222.431,46.494,221.999,46.771z M225.952,44.377l-0.768-1.351c0.456-0.26,0.914-0.514,1.374-0.762
	l0.738,1.368C226.848,43.876,226.398,44.124,225.952,44.377z M251.017,44.375c-0.235-0.449-0.484-0.866-0.749-1.253l1.284-0.876
	c0.297,0.435,0.578,0.905,0.842,1.408L251.017,44.375z M230.033,42.241l-0.669-1.403c0.479-0.229,0.957-0.448,1.434-0.658
	l0.627,1.423C230.962,41.807,230.497,42.021,230.033,42.241z M248.337,41.002c-0.368-0.298-0.763-0.569-1.174-0.803l0.77-1.351
	c0.483,0.275,0.949,0.594,1.384,0.945L248.337,41.002z M234.259,40.472l-0.522-1.465c0.505-0.18,1.009-0.347,1.507-0.5l0.457,1.486
	C235.223,40.139,234.742,40.299,234.259,40.472z M238.627,39.262l-0.284-1.529c0.538-0.1,1.068-0.179,1.592-0.237l0.172,1.545
	C239.621,39.095,239.127,39.169,238.627,39.262z M244.492,39.196c-0.467-0.1-0.947-0.169-1.438-0.211l0.132-1.549
	c0.563,0.047,1.112,0.129,1.632,0.241L244.492,39.196z"/>
<rect id="XMLID_317_" x="40.583" y="48.889" transform="matrix(0.9773 0.2117 -0.2117 0.9773 11.3679 -7.6383)" fill="#4C698B" width="1.555" height="0.777"/>
<rect id="XMLID_316_" x="63" y="70.177" width="122.755" height="78.871"/>
<polygon id="XMLID_315_" fill="#ADADAD" points="149.564,174.198 102.983,174.198 115.649,157.257 136.902,157.257 "/>
<path id="XMLID_314_" fill="#DBDBDB" d="M176.753,165.465H72.002c-4.974,0-9.002-3.676-9.002-8.208v-8.209h122.755
	c0,0,0,3.677,0,8.209S181.723,165.465,176.753,165.465z"/>
<rect id="XMLID_313_" x="101.273" y="174.198" width="50.002" height="5.329"/>
<rect id="XMLID_312_" x="66.599" y="73.779" fill="#C1D64B" width="59.676" height="71.67"/>
<rect id="XMLID_311_" x="126.274" y="73.779" fill="#9FB603" width="55.878" height="71.67"/>
<path id="XMLID_310_" fill="#3C2415" d="M155.2,90.849c0,0-11.71-1.465-14.931,5.267c-3.22,6.734-4.685,19.031-7.904,19.617
	c-3.221,0.586,22.835,5.271,31.324-13.467C172.182,83.529,155.2,90.849,155.2,90.849z"/>
<path id="XMLID_309_" fill="#3C2415" d="M167.79,80.992c0,0,6.048-4.783,15.319-10.54c9.159-5.687,20.69-10.539,20.69-10.539
	s-5.8,9.619-13.663,17.369c-6.929,6.832-13.856,13.567-13.856,13.567L167.79,80.992z"/>
<path id="XMLID_308_" fill="#896956" d="M193.357,66.354c0,0-15.519,7.513-25.763,16.882c-10.248,9.369,2.73,1.17,2.73,1.17
	S183.305,72.307,193.357,66.354z"/>
<rect id="XMLID_307_" x="158.855" y="82.517" transform="matrix(0.6396 0.7687 -0.7687 0.6396 129.6451 -94.8638)" fill="#D8D8D8" width="14.266" height="16.617"/>
<rect id="XMLID_306_" x="154.598" y="91.598" transform="matrix(0.6396 0.7687 -0.7687 0.6396 130.8336 -90.3139)" fill="#16C1D1" width="14.266" height="5.54"/>
<polygon id="XMLID_305_" fill="#FFFFFF" points="167.595,81.578 160.565,87.335 162.227,89.287 169.058,83.432 "/>
<path id="XMLID_304_" fill="#A0887C" d="M153.542,92.506c0,0-7.807-1.268-10.345,3.319
	C140.66,100.412,147.491,97.874,153.542,92.506z"/>
<circle id="XMLID_303_" fill="#C60A40" cx="173.046" cy="207.092" r="26.431"/>
<path fill="#C60A40" d="M110.372,18.748c-8.426,0-15.256,6.83-15.256,15.256c0,8.425,6.83,15.255,15.256,15.255
	c8.425,0,15.255-6.83,15.255-15.255C125.627,25.578,118.797,18.748,110.372,18.748z M104.863,41.164V26.843l12.404,7.161
	L104.863,41.164z"/>
<path fill="#C60A40" d="M0,80.533c0,6.117,4.958,11.075,11.075,11.075c6.117,0,11.076-4.958,11.076-11.075
	c0-6.117-4.958-11.076-11.076-11.076C4.958,69.457,0,74.416,0,80.533z M6.069,80.533l9.005-5.199v10.398L6.069,80.533z"/>
<path id="XMLID_298_" fill="#0F303F" d="M71.299,176.559h-9.371v47.549h9.371c1.894,0,3.429-1.537,3.429-3.431v-40.689
	C74.729,178.094,73.193,176.559,71.299,176.559z"/>
<path id="XMLID_297_" fill="#2C5871" d="M52.555,176.559c-1.894,0-3.429,1.535-3.429,3.429v40.689c0,1.894,1.535,3.431,3.429,3.431
	h9.373v-47.549H52.555z"/>
<rect id="XMLID_296_" x="56.722" y="178.461" fill="#FFFFFF" width="10.412" height="0.855"/>
<path fill="#FFFFFF" d="M61.928,222.778c-1.559,0-2.828-1.268-2.828-2.827c0-1.558,1.269-2.826,2.828-2.826
	c1.558,0,2.826,1.269,2.826,2.826C64.754,221.51,63.486,222.778,61.928,222.778z M61.928,217.739c-1.22,0-2.213,0.991-2.213,2.212
	c0,1.22,0.993,2.213,2.213,2.213c1.219,0,2.211-0.993,2.211-2.213C64.14,218.73,63.147,217.739,61.928,217.739z"/>
<rect id="XMLID_293_" x="50.37" y="181.716" fill="#16C1D1" width="11.683" height="33.693"/>
<rect id="XMLID_292_" x="62.053" y="181.716" fill="#129DAB" width="11.434" height="33.693"/>
<path id="XMLID_291_" fill="#2C5871" d="M6.801,164.067c-2.548,0-4.616,2.066-4.616,4.613v50.763c0,2.548,2.067,4.614,4.616,4.614
	H24.95v-59.99H6.801z"/>
<path id="XMLID_290_" fill="#0F303F" d="M43.101,164.067H24.95v59.99h18.15c2.549,0,4.613-2.066,4.613-4.614V168.68
	C47.713,166.133,45.65,164.067,43.101,164.067z"/>
<circle id="XMLID_289_" fill="#FFFFFF" cx="24.95" cy="220.545" r="2.541"/>
<path id="XMLID_288_" fill="#FFFFFF" d="M37.585,166.5c0,0.482-0.391,0.873-0.874,0.873c-0.484,0-0.877-0.391-0.877-0.873
	c0-0.484,0.393-0.878,0.877-0.878C37.194,165.623,37.585,166.016,37.585,166.5z"/>
<rect id="XMLID_287_" x="4.196" y="169.038" fill="#FDC63A" width="20.657" height="47.352"/>
<rect id="XMLID_286_" x="24.853" y="169.038" fill="#FDA014" width="20.852" height="47.352"/>
<path id="XMLID_285_" fill="#FFFFFF" d="M14.272,206.301c-2.351,0-4.262-1.912-4.262-4.263v-8.943c0-2.35,1.911-4.263,4.262-4.263
	H62.87c2.351,0,4.263,1.913,4.263,4.263v8.943c0,2.351-1.912,4.263-4.263,4.263H14.272z"/>
<path id="XMLID_284_" fill="#9FB603" d="M62.87,205.237H14.272c-1.766,0-3.197-1.432-3.197-3.198v-8.943
	c0-1.765,1.431-3.196,3.197-3.196H62.87c1.767,0,3.198,1.432,3.198,3.196v8.943C66.067,203.805,64.636,205.237,62.87,205.237z"/>
<path fill="#FFFFFF" d="M23.059,199.067h-1.732l-0.36,1.151h-1.12l1.803-5.343h1.096l1.795,5.343h-1.119L23.059,199.067z
	 M21.59,198.227h1.208l-0.591-1.883h-0.021L21.59,198.227z"/>
<path fill="#FFFFFF" d="M26.12,198.282v1.937h-1.072v-5.343h2.045c0.613,0,1.097,0.157,1.451,0.472
	c0.354,0.314,0.531,0.726,0.531,1.234c0,0.512-0.177,0.923-0.531,1.233c-0.354,0.311-0.837,0.467-1.451,0.467H26.12z M26.12,197.456
	h0.973c0.297,0,0.524-0.081,0.678-0.244c0.154-0.163,0.232-0.369,0.232-0.622c0-0.257-0.078-0.47-0.229-0.637
	c-0.153-0.167-0.379-0.251-0.68-0.251H26.12V197.456z"/>
<path fill="#FFFFFF" d="M30.901,198.282v1.937h-1.072v-5.343h2.045c0.614,0,1.097,0.157,1.451,0.472
	c0.354,0.314,0.53,0.726,0.53,1.234c0,0.512-0.177,0.923-0.53,1.233c-0.354,0.311-0.837,0.467-1.451,0.467H30.901z M30.901,197.456
	h0.974c0.297,0,0.524-0.081,0.678-0.244s0.231-0.369,0.231-0.622c0-0.257-0.077-0.47-0.229-0.637
	c-0.153-0.167-0.38-0.251-0.68-0.251h-0.974V197.456z"/>
<path fill="#FFFFFF" d="M35.688,198.083v2.135h-1.076v-5.343h1.868c0.61,0,1.086,0.14,1.431,0.416
	c0.346,0.278,0.519,0.665,0.519,1.162c0,0.273-0.073,0.511-0.218,0.71c-0.146,0.199-0.358,0.36-0.637,0.482
	c0.315,0.093,0.542,0.249,0.681,0.466c0.138,0.218,0.206,0.487,0.206,0.808v0.393c0,0.149,0.021,0.306,0.062,0.468
	c0.039,0.163,0.109,0.283,0.207,0.362v0.076h-1.105c-0.098-0.078-0.16-0.208-0.188-0.389c-0.028-0.181-0.042-0.355-0.042-0.524
	v-0.378c0-0.268-0.073-0.475-0.219-0.622c-0.145-0.148-0.351-0.222-0.618-0.222H35.688z M35.688,197.257h0.774
	c0.301,0,0.524-0.063,0.673-0.19c0.148-0.128,0.222-0.316,0.222-0.565c0-0.245-0.074-0.439-0.222-0.583
	c-0.149-0.146-0.367-0.217-0.656-0.217h-0.792V197.257z"/>
<path fill="#FFFFFF" d="M43.672,198.028c0,0.659-0.207,1.201-0.62,1.628c-0.413,0.427-0.951,0.641-1.615,0.641
	c-0.661,0-1.197-0.214-1.608-0.643c-0.41-0.428-0.616-0.97-0.616-1.626v-0.961c0-0.653,0.205-1.195,0.615-1.625
	c0.409-0.429,0.943-0.644,1.602-0.644c0.663,0,1.202,0.215,1.618,0.644c0.416,0.43,0.624,0.972,0.624,1.625V198.028z
	 M42.604,197.059c0-0.416-0.104-0.757-0.312-1.024c-0.207-0.267-0.496-0.399-0.861-0.399c-0.362,0-0.645,0.133-0.847,0.399
	c-0.202,0.268-0.303,0.608-0.303,1.024v0.969c0,0.424,0.103,0.769,0.305,1.035s0.487,0.399,0.851,0.399
	c0.366,0,0.653-0.133,0.858-0.399s0.308-0.611,0.308-1.035V197.059z"/>
<path fill="#FFFFFF" d="M46.175,198.769l0.066,0.294h0.021l0.063-0.282l1.164-3.905h1.129l-1.816,5.343h-1.1l-1.814-5.343h1.13
	L46.175,198.769z"/>
<path fill="#FFFFFF" d="M52.187,197.871h-1.986v1.525h2.36v0.822h-3.432v-5.343h3.421v0.826h-2.349v1.343h1.986V197.871z"/>
<path fill="#FFFFFF" d="M53.307,200.218v-5.343h1.868c0.65,0,1.188,0.209,1.611,0.626c0.422,0.417,0.635,0.952,0.635,1.605v0.885
	c0,0.654-0.212,1.19-0.635,1.605c-0.423,0.414-0.961,0.621-1.611,0.621H53.307z M54.382,195.702v3.694h0.793
	c0.349,0,0.632-0.131,0.849-0.394c0.217-0.264,0.325-0.601,0.325-1.011V197.1c0-0.407-0.108-0.742-0.325-1.004
	c-0.216-0.264-0.5-0.395-0.849-0.395H54.382z"/>
<rect id="XMLID_269_" x="14.431" y="13.631" width="49.714" height="31.942"/>
<polygon id="XMLID_268_" fill="#ADADAD" points="49.487,55.756 30.623,55.756 35.753,48.896 44.359,48.896 "/>
<path id="XMLID_267_" fill="#DBDBDB" d="M60.499,52.22H18.076c-2.014,0-3.646-1.489-3.646-3.324v-3.323h49.714c0,0,0,1.488,0,3.323
	C64.145,50.731,62.511,52.22,60.499,52.22z"/>
<rect id="XMLID_266_" x="29.931" y="55.756" width="20.249" height="2.158"/>
<rect id="XMLID_265_" x="15.888" y="15.089" fill="#FDC63A" width="24.167" height="29.025"/>
<rect id="XMLID_264_" x="40.056" y="15.089" fill="#FDA014" width="22.63" height="29.025"/>
<rect id="XMLID_263_" x="17.454" y="17.232" fill="#FDF3D7" width="21.003" height="8.458"/>
<rect id="XMLID_262_" x="41.683" y="17.232" fill="#FDF3D7" width="19.133" height="8.458"/>
<rect id="XMLID_261_" x="17.454" y="27.553" fill="#FDF3D7" width="43.361" height="3.188"/>
<rect id="XMLID_260_" x="17.454" y="32.335" fill="#FDF3D7" width="43.361" height="3.188"/>
<rect id="XMLID_259_" x="17.454" y="37.118" fill="#FDF3D7" width="43.361" height="3.188"/>
<path id="XMLID_258_" fill="#0F303F" d="M70.868,21.771h-7.124v36.143h7.124c1.44,0,2.606-1.166,2.606-2.605V24.377
	C73.475,22.938,72.308,21.771,70.868,21.771z"/>
<path id="XMLID_257_" fill="#2C5871" d="M56.619,21.771c-1.439,0-2.606,1.167-2.606,2.606v30.932c0,1.439,1.167,2.605,2.606,2.605
	h7.126V21.771H56.619z"/>
<rect id="XMLID_256_" x="59.787" y="23.217" fill="#FFFFFF" width="7.915" height="0.649"/>
<path fill="#FFFFFF" d="M63.745,56.905c-1.185,0-2.15-0.965-2.15-2.149s0.965-2.148,2.15-2.148c1.185,0,2.148,0.964,2.148,2.148
	S64.929,56.905,63.745,56.905z M63.745,53.074c-0.927,0-1.682,0.753-1.682,1.681c0,0.927,0.755,1.682,1.682,1.682
	s1.681-0.755,1.681-1.682C65.426,53.828,64.672,53.074,63.745,53.074z"/>
<rect id="XMLID_253_" x="54.958" y="25.69" fill="#FDC63A" width="8.882" height="25.613"/>
<rect id="XMLID_252_" x="63.84" y="25.69" fill="#FDA014" width="8.69" height="25.613"/>
<rect id="XMLID_251_" x="56.44" y="27.239" fill="#FDF3D7" width="14.481" height="4.557"/>
<rect id="XMLID_250_" x="56.44" y="32.561" fill="#FDF3D7" width="14.481" height="4.557"/>
<rect id="XMLID_249_" x="56.44" y="37.882" fill="#FDF3D7" width="14.481" height="4.557"/>
<rect id="XMLID_248_" x="56.44" y="43.204" fill="#FDF3D7" width="14.481" height="4.558"/>
<polygon id="XMLID_247_" fill="#FDC63A" points="190.396,217.803 190.883,217.186 162.419,194.756 161.932,195.374 160.651,197 
	189.116,219.429 "/>
<rect id="XMLID_246_" x="172.552" y="191.226" transform="matrix(0.6189 -0.7854 0.7854 0.6189 -98.1262 216.4369)" fill="#AD6E0E" width="2.88" height="36.239"/>
<polygon id="XMLID_245_" fill="#896956" points="162.435,194.737 158.341,194.469 156.976,194.102 156.977,194.103 160.651,197 "/>
<polygon id="XMLID_244_" fill="#3C2415" points="160.651,197 156.977,194.103 157.648,195.333 158.869,199.261 "/>
<path id="XMLID_243_" fill="#2C5871" d="M239.513,79.603c-0.968,0-2.334,0.524-3.054,1.17l-2.938,2.638
	c-0.72,0.645-2.087,1.169-3.053,1.169h-9.663c-0.969,0-1.751,0.784-1.751,1.751v28.734c0,0.967,0.782,1.75,1.751,1.75h24.239V79.603
	H239.513z"/>
<path id="XMLID_242_" fill="#0F303F" d="M272.114,84.58h-11.379c-0.967,0-2.284-0.574-2.944-1.281l-2.245-2.414
	c-0.659-0.708-1.977-1.281-2.943-1.281h-7.558v37.212h27.069c0.968,0,1.751-0.784,1.751-1.75V86.331
	C273.865,85.363,273.082,84.58,272.114,84.58z"/>
<circle id="XMLID_241_" fill="#FFFFFF" cx="244.836" cy="99.367" r="13.531"/>
<rect id="XMLID_240_" x="219.055" y="93.314" fill="#FD9800" width="54.811" height="15.17"/>
<circle id="XMLID_239_" fill="#16C1D1" cx="244.836" cy="100.899" r="13.531"/>
<path id="XMLID_238_" fill="#F1F2F1" d="M230.43,100.899c0-1.064,0.118-2.099,0.337-3.096h-2.927c-1.709,0-3.096,1.386-3.096,3.096
	c0,1.709,1.387,3.095,3.096,3.095h2.927C230.548,102.997,230.43,101.962,230.43,100.899z"/>
<path id="XMLID_237_" fill="#F1F2F1" d="M261.831,97.803h-2.927c0.22,0.998,0.338,2.032,0.338,3.096
	c0,1.063-0.118,2.097-0.338,3.095h2.927c1.71,0,3.097-1.385,3.097-3.095C264.928,99.189,263.541,97.803,261.831,97.803z"/>
<rect id="XMLID_236_" x="222.333" y="83.687" fill="#F1F2F1" width="6.065" height="0.893"/>
<rect id="XMLID_235_" x="223.593" y="82.794" fill="#16C1D1" width="3.545" height="0.893"/>
<rect id="XMLID_234_" x="258.367" y="88.354" fill="#16C1D1" width="12.392" height="2.528"/>
<rect id="XMLID_93_" x="258.367" y="88.354" fill="#F1F2F1" width="6.196" height="2.528"/>
<path id="XMLID_92_" fill="#CFCFCF" d="M219.055,114.975v0.089c0,0.967,0.782,1.75,1.751,1.75h51.309
	c0.968,0,1.751-0.784,1.751-1.75v-0.089H219.055z"/>
<path id="XMLID_91_" fill="#FFFFFF" d="M233.162,100.899c0,6.445,5.223,11.669,11.667,11.673V89.227
	C238.385,89.229,233.162,94.454,233.162,100.899z"/>
<path id="XMLID_90_" fill="#E6E6E6" d="M244.835,89.226c-0.002,0-0.004,0-0.006,0v23.346c0.002,0,0.004,0,0.006,0
	c6.448,0,11.676-5.226,11.676-11.673C256.511,94.452,251.283,89.226,244.835,89.226z"/>
<path id="XMLID_89_" fill="#FDC63A" d="M162.482,0c-7.368-0.026-13.363,6.176-13.392,13.854c-0.019,5.31,3.408,7.853,5.844,12.12
	c1.243,2.177,1.142,10.304,1.142,10.304c-0.004,1.626,1.255,2.948,2.816,2.953l3.455,0.013L162.482,0L162.482,0z"/>
<path id="XMLID_88_" fill="#FD9800" d="M175.777,13.946c0.026-7.677-5.925-13.92-13.294-13.946l-0.136,39.244l3.453,0.012
	c1.559,0.005,2.829-1.308,2.833-2.932c0,0-0.043-8.21,1.216-10.38C172.313,21.694,175.757,19.256,175.777,13.946z"/>
<path id="XMLID_87_" fill="#FD9800" d="M159.974,33.413c1.326-1.319,3.469-1.311,4.787,0.017l1.854,1.867
	c1.316,1.326,1.311,3.47-0.017,4.788l-1.868,1.854c-1.327,1.318-3.47,1.31-4.786-0.017l-1.856-1.867
	c-1.316-1.327-1.309-3.471,0.018-4.787L159.974,33.413z"/>
<path id="XMLID_86_" fill="#C60A40" d="M170.052,37.859c-0.002,0.798-0.989,1.442-2.206,1.438l-11-0.038
	c-1.215-0.004-2.197-0.655-2.193-1.455l0,0c0-0.799,0.989-1.442,2.203-1.437l11.002,0.037
	C169.072,36.409,170.054,37.059,170.052,37.859L170.052,37.859z"/>
<path id="XMLID_85_" fill="#FFFFFF" d="M170.061,35.15c-0.002,0.799-0.989,1.445-2.206,1.44l-10.999-0.038
	c-1.215-0.004-2.198-0.657-2.194-1.455l0,0c0.002-0.799,0.989-1.443,2.203-1.438l11.003,0.037
	C169.081,33.701,170.064,34.353,170.061,35.15L170.061,35.15z"/>
<path id="XMLID_84_" fill="#C60A40" d="M170.069,32.442c0,0.799-0.989,1.443-2.203,1.438l-11.002-0.039
	c-1.215-0.003-2.197-0.653-2.194-1.452l0,0c0.001-0.799,0.989-1.443,2.206-1.438l11,0.038
	C169.09,30.994,170.073,31.644,170.069,32.442L170.069,32.442z"/>
<path id="XMLID_83_" fill="#FFFFFF" d="M170.081,29.734c-0.003,0.798-0.991,1.443-2.206,1.439l-11.002-0.039
	c-1.214-0.003-2.197-0.655-2.194-1.454l0,0c0.003-0.799,0.99-1.442,2.206-1.44l11,0.039
	C169.101,28.284,170.083,28.936,170.081,29.734L170.081,29.734z"/>
</svg>
